<svg viewBox="0 0 599.82 552.12" xmlns="http://www.w3.org/2000/svg" xmlns:xlink="http://www.w3.org/1999/xlink" id="_레이어_2" overflow="hidden"><defs><clipPath id="clippath"><path d="M0 73.05 7.27 87.22 7.27 98.54 7.27 238.05 117.18 301.51 123.33 313.49 130.59 309.25 130.59 169.74 130.59 140.02 7.27 68.81 0 73.05Z" stroke-width="0" fill="none" clip-rule="evenodd"/></clipPath><clipPath id="clippath-1"><rect x="-300" y="-180.72" width="1200" height="900" stroke-width="0" fill="none"/></clipPath><clipPath id="clippath-2"><path d="M0 242.28 7.68 246.71 7.68 243.2C7.68 242.56 7.73 241.96 7.83 241.41 8.48 237.71 11.21 236.21 14.45 238.08L23.3 243.19C24.27 238.47 25.82 234.4 27.88 231.07L21.63 219.12C19.34 214.75 19.04 209.83 20.74 207.32 20.99 206.94 21.29 206.62 21.63 206.36L25.35 203.54C25.69 203.28 26.07 203.1 26.46 202.99 29.08 202.25 32.64 204.7 34.93 209.07L41.18 221.02C44.57 220.23 48.3 220.31 52.26 221.31L52.26 209.51C52.26 205.19 54.57 202.89 57.63 203.78 58.08 203.91 58.55 204.11 59.04 204.39L61.67 205.91 64.3 207.43C64.78 207.71 65.25 208.05 65.71 208.44 68.77 211.07 71.08 216.04 71.08 220.37L71.08 232.17C75.04 235.75 78.77 239.97 82.16 244.68L88.41 239.95C90.7 238.22 94.26 239.88 96.88 243.65 97.27 244.22 97.65 244.83 97.99 245.48L99.85 249.04 99.85 249.04C99.85 249.04 101.71 252.6 101.71 252.6 102.05 253.26 102.35 253.93 102.6 254.6 104.29 259.07 104 263.64 101.71 265.37L95.46 270.1C97.52 275.81 99.08 281.68 100.04 287.52L108.89 292.63C112.13 294.5 114.86 299.16 115.51 303.61 115.61 304.27 115.66 304.93 115.66 305.57L115.66 309.08 123.34 313.51 123.34 174 0 102.78 0 242.29Z" stroke-width="0" fill="none" clip-rule="evenodd"/></clipPath><clipPath id="clippath-3"><rect x="-300" y="-180.72" width="1200" height="900" stroke-width="0" fill="none"/></clipPath><clipPath id="clippath-4"><path d="M0 73.05 0 102.77 123.33 173.97 123.33 144.25 0 73.05ZM11.1 98.34C9.44 97.38 8.09 94.8 8.09 92.59 8.09 90.38 9.44 89.35 11.1 90.31 12.76 91.27 14.11 93.85 14.11 96.06 14.11 98.27 12.76 99.3 11.1 98.34ZM19.61 103.25C17.95 102.29 16.6 99.71 16.6 97.5 16.6 95.29 17.95 94.26 19.61 95.22 21.27 96.18 22.62 98.76 22.62 100.97 22.62 103.18 21.27 104.21 19.61 103.25ZM28.12 108.16C26.46 107.2 25.11 104.62 25.11 102.41 25.11 100.2 26.46 99.17 28.12 100.13 29.78 101.09 31.13 103.67 31.13 105.88 31.13 108.09 29.78 109.12 28.12 108.16Z" stroke-width="0" fill="none" clip-rule="evenodd"/></clipPath><clipPath id="clippath-5"><rect x="-300" y="-180.72" width="1200" height="900" stroke-width="0" fill="none"/></clipPath><clipPath id="clippath-6"><path d="M11.1 90.31C9.44 89.35 8.09 90.37 8.09 92.59 8.09 94.81 9.44 97.38 11.1 98.34 12.76 99.3 14.11 98.28 14.11 96.06 14.11 93.84 12.76 91.27 11.1 90.31" stroke-width="0" fill="none" clip-rule="evenodd"/></clipPath><clipPath id="clippath-7"><rect x="-300" y="-180.72" width="1200" height="900" stroke-width="0" fill="none"/></clipPath><clipPath id="clippath-8"><path d="M19.61 95.22C17.95 94.26 16.6 95.28 16.6 97.5 16.6 99.72 17.95 102.29 19.61 103.25 21.27 104.21 22.62 103.19 22.62 100.97 22.62 98.75 21.27 96.18 19.61 95.22" stroke-width="0" fill="none" clip-rule="evenodd"/></clipPath><clipPath id="clippath-9"><rect x="-300" y="-180.72" width="1200" height="900" stroke-width="0" fill="none"/></clipPath><clipPath id="clippath-10"><path d="M28.12 100.13C26.46 99.17 25.11 100.19 25.11 102.41 25.11 104.63 26.46 107.2 28.12 108.16 29.78 109.12 31.13 108.1 31.13 105.88 31.13 103.66 29.78 101.09 28.12 100.13" stroke-width="0" fill="none" clip-rule="evenodd"/></clipPath><clipPath id="clippath-11"><rect x="-300" y="-180.72" width="1200" height="900" stroke-width="0" fill="none"/></clipPath><clipPath id="clippath-12"><path d="M115.5 303.58C114.85 299.13 112.12 294.48 108.88 292.6L100.03 287.49C99.06 281.65 97.51 275.78 95.45 270.08L101.7 265.35C103.99 263.62 104.29 259.05 102.59 254.58 102.34 253.91 102.04 253.24 101.7 252.58L99.84 249.02 99.84 249.02C99.84 249.02 97.98 245.46 97.98 245.46 97.64 244.8 97.26 244.19 96.87 243.63 94.25 239.86 90.69 238.2 88.4 239.93L82.15 244.66C78.76 239.96 75.03 235.73 71.07 232.15L71.07 220.35C71.07 216.03 68.76 211.06 65.71 208.42 65.26 208.03 64.78 207.69 64.3 207.41L61.67 205.89 59.04 204.37C58.56 204.09 58.09 203.89 57.63 203.76 54.58 202.87 52.26 205.17 52.26 209.49L52.26 221.29C48.3 220.29 44.57 220.22 41.18 221L34.93 209.05C32.64 204.68 29.08 202.23 26.46 202.97 26.07 203.08 25.69 203.26 25.35 203.52L21.63 206.34C21.29 206.6 20.99 206.93 20.74 207.3 19.05 209.82 19.35 214.73 21.63 219.11L27.88 231.06C25.82 234.39 24.26 238.46 23.3 243.18L14.45 238.07C11.21 236.2 8.48 237.7 7.83 241.4 7.73 241.95 7.68 242.55 7.68 243.19L7.68 246.7 43.63 267.45C43.63 254.17 51.71 248.06 61.67 253.82 71.63 259.57 79.71 275 79.71 288.28L115.66 309.04 115.66 305.53C115.66 304.89 115.61 304.23 115.51 303.57" stroke-width="0" fill="none" clip-rule="evenodd"/></clipPath><clipPath id="clippath-13"><rect x="-300" y="-180.72" width="1200" height="900" stroke-width="0" fill="none"/></clipPath><clipPath id="clippath-14"><path d="M61.66 253.84C51.7 248.09 43.62 254.19 43.62 267.48L79.69 288.31C79.69 275.03 71.61 259.6 61.65 253.85" stroke-width="0" fill="none" clip-rule="evenodd"/></clipPath><clipPath id="clippath-15"><rect x="-300" y="-180.72" width="1200" height="900" stroke-width="0" fill="none"/></clipPath><clipPath id="clippath-16"><path d="M109.7 217.94 13.63 162.48 13.63 129.13 109.7 184.6 109.7 217.94Z" stroke-width="0" fill="none" clip-rule="evenodd"/></clipPath><clipPath id="clippath-17"><rect x="-300" y="-180.72" width="1200" height="900" stroke-width="0" fill="none"/></clipPath><clipPath id="clippath-18"><path d="M441.73 252.41C441.04 251.48 440.48 249.71 440.48 248.49 440.48 247.27 441.04 247.02 441.73 247.95 442.42 248.88 442.99 250.64 442.99 251.87 442.99 253.1 442.42 253.34 441.73 252.41" stroke-width="0" fill="none" clip-rule="evenodd"/></clipPath><clipPath id="clippath-19"><rect x="-300" y="-180.72" width="1200" height="900" stroke-width="0" fill="none"/></clipPath><clipPath id="clippath-20"><rect x="391.23" y="192.25" width="208.6" height="358.38" stroke-width="0" fill="none"/></clipPath><clipPath id="clippath-21"><rect x="-300" y="-180.72" width="1200" height="900" stroke-width="0" fill="none"/></clipPath><clipPath id="clippath-22"><rect x="391" y="191.28" width="209" height="360" stroke-width="0" fill="none"/></clipPath><clipPath id="clippath-23"><path d="M580.28 298.3 396.61 192.26 391.23 195.37 396.61 200.24 396.61 388.51 554.97 479.94 558.13 485.68 555.68 480.35 560.74 483.27 560.74 490.42 558.13 485.69 560.74 491.36 560.74 509.33C560.74 523.72 569.49 540.44 580.29 546.67 582.73 548.08 585.07 548.83 587.22 548.98L587.98 550.64 592.46 548.03 592.46 548.03C596.95 545.85 599.83 540.15 599.83 531.9L599.83 335.65C599.83 321.26 591.08 304.54 580.29 298.31" stroke-width="0" fill="none" clip-rule="evenodd"/></clipPath><clipPath id="clippath-24"><rect x="391" y="191.28" width="209" height="360" stroke-width="0" fill="none"/></clipPath><clipPath id="clippath-25"><path d="M574.9 301.41 391.23 195.37 391.23 391.62 555.36 486.38 555.36 316.19C555.36 301.8 564.11 295.18 574.9 301.41" stroke-width="0" fill="none" clip-rule="evenodd"/></clipPath><clipPath id="clippath-26"><rect x="-300" y="-180.72" width="1200" height="900" stroke-width="0" fill="none"/></clipPath><clipPath id="clippath-27"><path d="M574.9 549.78C585.69 556.01 594.45 549.4 594.45 535L555.36 512.43C555.36 526.82 564.11 543.54 574.9 549.77" stroke-width="0" fill="none" clip-rule="evenodd"/></clipPath><clipPath id="clippath-28"><rect x="-300" y="-180.72" width="1200" height="900" stroke-width="0" fill="none"/></clipPath><clipPath id="clippath-29"><path d="M574.9 301.41C564.11 295.18 555.36 301.79 555.36 316.19L594.45 338.76C594.45 324.37 585.7 307.65 574.9 301.42" stroke-width="0" fill="none" clip-rule="evenodd"/></clipPath><clipPath id="clippath-30"><rect x="-300" y="-180.72" width="1200" height="900" stroke-width="0" fill="none"/></clipPath><clipPath id="clippath-31"><path d="M574.9 497.66 555.36 486.38 555.36 512.44C555.36 498.05 564.11 491.43 574.9 497.66" stroke-width="0" fill="none" clip-rule="evenodd"/></clipPath><clipPath id="clippath-32"><rect x="-300" y="-180.72" width="1200" height="900" stroke-width="0" fill="none"/></clipPath><clipPath id="clippath-33"><path d="M594.44 535 594.44 508.94 574.89 497.66C585.68 503.89 594.44 520.61 594.44 535" stroke-width="0" fill="none" clip-rule="evenodd"/></clipPath><clipPath id="clippath-34"><rect x="-300" y="-180.72" width="1200" height="900" stroke-width="0" fill="none"/></clipPath><clipPath id="clippath-35"><path d="M574.9 353.53C564.11 347.3 555.36 330.58 555.36 316.19L555.36 486.38 574.9 497.66 594.45 508.94 594.45 338.75C594.45 353.14 585.7 359.76 574.9 353.53" stroke-width="0" fill="none" clip-rule="evenodd"/></clipPath><clipPath id="clippath-36"><rect x="-300" y="-180.72" width="1200" height="900" stroke-width="0" fill="none"/></clipPath><clipPath id="clippath-37"><path d="M574.9 497.66C564.11 491.43 555.36 498.04 555.36 512.44L594.45 535.01C594.45 520.62 585.7 503.9 574.9 497.67" stroke-width="0" fill="none" clip-rule="evenodd"/></clipPath><clipPath id="clippath-38"><rect x="-300" y="-180.72" width="1200" height="900" stroke-width="0" fill="none"/></clipPath><clipPath id="clippath-39"><path d="M574.9 353.53C585.69 359.76 594.45 353.15 594.45 338.75L555.36 316.18C555.36 330.57 564.11 347.29 574.9 353.52" stroke-width="0" fill="none" clip-rule="evenodd"/></clipPath><clipPath id="clippath-40"><rect x="-300" y="-180.72" width="1200" height="900" stroke-width="0" fill="none"/></clipPath><clipPath id="clippath-41"><path d="M519.44 341.19C518.92 337.65 516.75 333.95 514.18 332.46L507.15 328.4C506.38 323.76 505.15 319.1 503.51 314.56L508.48 310.8C510.3 309.42 510.54 305.79 509.19 302.24 508.99 301.71 508.75 301.17 508.48 300.65L507 297.82 507 297.82C507 297.82 505.52 294.99 505.52 294.99 505.25 294.47 504.95 293.98 504.64 293.53 502.56 290.53 499.73 289.22 497.91 290.59L492.94 294.35C490.24 290.61 487.28 287.25 484.13 284.41L484.13 275.03C484.13 271.59 482.29 267.64 479.87 265.55 479.51 265.24 479.14 264.97 478.75 264.75L476.66 263.54 474.57 262.33C474.19 262.11 473.81 261.95 473.45 261.84 471.02 261.13 469.19 262.96 469.19 266.4L469.19 275.78C466.04 274.99 463.08 274.93 460.38 275.55L455.41 266.05C453.59 262.57 450.76 260.63 448.68 261.22 448.37 261.31 448.07 261.45 447.8 261.66L444.84 263.9C444.57 264.11 444.33 264.37 444.13 264.67 442.79 266.67 443.02 270.58 444.84 274.05L449.81 283.55C448.17 286.2 446.94 289.44 446.17 293.19L439.14 289.13C436.56 287.64 434.39 288.84 433.88 291.78 433.8 292.22 433.76 292.69 433.76 293.2L433.76 298.78C433.76 299.29 433.8 299.81 433.88 300.34 434.4 303.88 436.57 307.58 439.14 309.07L446.17 313.13C446.94 317.77 448.17 322.43 449.81 326.97L444.84 330.73C443.02 332.11 442.78 335.74 444.13 339.29 444.33 339.82 444.57 340.36 444.84 340.88L447.8 346.54C448.07 347.06 448.37 347.55 448.68 348 450.76 351 453.59 352.31 455.41 350.94L460.38 347.18C463.08 350.92 466.04 354.28 469.19 357.12L469.19 366.5C469.19 369.94 471.03 373.89 473.45 375.98 473.81 376.29 474.18 376.56 474.57 376.79L476.66 378 478.75 379.21C479.13 379.43 479.51 379.59 479.87 379.7 482.3 380.41 484.13 378.58 484.13 375.14L484.13 365.76C487.28 366.55 490.24 366.61 492.94 365.99L497.91 375.49C499.73 378.97 502.56 380.91 504.64 380.32 504.95 380.23 505.25 380.09 505.52 379.88L507 378.76 507 378.76C507 378.76 508.48 377.64 508.48 377.64 508.75 377.43 508.99 377.17 509.19 376.87 510.54 374.87 510.3 370.96 508.48 367.49L503.51 357.99C505.15 355.34 506.38 352.1 507.15 348.35L514.18 352.41C516.76 353.9 518.92 352.7 519.44 349.76 519.52 349.32 519.56 348.85 519.56 348.34L519.56 342.76C519.56 342.25 519.52 341.73 519.44 341.2" stroke-width="0" fill="none" clip-rule="evenodd"/></clipPath><clipPath id="clippath-42"><rect x="-300" y="-180.72" width="1200" height="900" stroke-width="0" fill="none"/></clipPath><clipPath id="clippath-43"><path d="M495.53 331.67C495.53 345.57 487.08 351.96 476.65 345.94 466.22 339.92 457.77 323.77 457.77 309.87 457.77 295.97 466.22 289.58 476.65 295.6 487.08 301.62 495.53 317.77 495.53 331.67" stroke-width="0" fill="none" clip-rule="evenodd"/></clipPath><clipPath id="clippath-44"><rect x="-300" y="-180.72" width="1200" height="900" stroke-width="0" fill="none"/></clipPath><clipPath id="clippath-45"><path d="M432.06 389.9 419.44 382.62C417.93 381.75 416.69 379.38 416.69 377.36L416.69 374.61C416.69 372.59 417.93 371.66 419.44 372.53L432.06 379.81C433.57 380.68 434.81 383.05 434.81 385.07L434.81 387.82C434.81 389.84 433.57 390.77 432.06 389.9" stroke-width="0" fill="none" clip-rule="evenodd"/></clipPath><clipPath id="clippath-46"><rect x="-300" y="-180.72" width="1200" height="900" stroke-width="0" fill="none"/></clipPath><clipPath id="clippath-47"><path d="M457.51 404.6 444.89 397.32C443.38 396.45 442.14 394.08 442.14 392.06L442.14 389.31C442.14 387.29 443.38 386.36 444.89 387.23L457.51 394.51C459.02 395.38 460.26 397.75 460.26 399.77L460.26 402.52C460.26 404.54 459.02 405.47 457.51 404.6" stroke-width="0" fill="none" clip-rule="evenodd"/></clipPath><clipPath id="clippath-48"><rect x="-300" y="-180.72" width="1200" height="900" stroke-width="0" fill="none"/></clipPath><clipPath id="clippath-49"><path d="M482.96 419.29 470.34 412.01C468.83 411.14 467.59 408.77 467.59 406.75L467.59 404C467.59 401.98 468.83 401.05 470.34 401.92L482.96 409.2C484.47 410.07 485.71 412.44 485.71 414.46L485.71 417.21C485.71 419.23 484.47 420.16 482.96 419.29" stroke-width="0" fill="none" clip-rule="evenodd"/></clipPath><clipPath id="clippath-50"><rect x="-300" y="-180.72" width="1200" height="900" stroke-width="0" fill="none"/></clipPath><clipPath id="clippath-51"><path d="M508.4 433.98 495.78 426.7C494.27 425.83 493.03 423.46 493.03 421.44L493.03 418.69C493.03 416.67 494.27 415.74 495.78 416.61L508.4 423.89C509.91 424.76 511.15 427.13 511.15 429.15L511.15 431.9C511.15 433.92 509.91 434.85 508.4 433.98" stroke-width="0" fill="none" clip-rule="evenodd"/></clipPath><clipPath id="clippath-52"><rect x="-300" y="-180.72" width="1200" height="900" stroke-width="0" fill="none"/></clipPath><clipPath id="clippath-53"><path d="M533.85 448.67 521.23 441.39C519.72 440.52 518.48 438.15 518.48 436.13L518.48 433.38C518.48 431.36 519.72 430.43 521.23 431.3L533.85 438.58C535.36 439.45 536.6 441.82 536.6 443.84L536.6 446.59C536.6 448.61 535.36 449.54 533.85 448.67" stroke-width="0" fill="none" clip-rule="evenodd"/></clipPath><clipPath id="clippath-54"><rect x="-300" y="-180.72" width="1200" height="900" stroke-width="0" fill="none"/></clipPath><clipPath id="clippath-55"><path d="M319.25 309.2 266.84 278.94C260.43 275.24 249.14 275.71 241.74 279.98L201.47 299.87C199.29 301.13 197.69 302.59 196.67 304.11L195.36 303.95 195.36 308.15C195.36 308.15 195.36 308.12 195.36 308.12 195.38 310.46 196.79 312.7 199.67 314.36L257.9 347.98C264.31 351.68 275.6 351.21 283 346.94L317.45 323.69C324.85 319.42 325.66 312.9 319.25 309.2" stroke-width="0" fill="none" clip-rule="evenodd"/></clipPath><clipPath id="clippath-56"><rect x="-300" y="-180.72" width="1200" height="900" stroke-width="0" fill="none"/></clipPath><clipPath id="clippath-57"><path d="M257.91 343.53 199.68 309.91C193.27 306.21 194.09 299.69 201.48 295.42L241.75 275.53C249.15 271.26 260.44 270.79 266.85 274.49L319.26 304.75C325.67 308.45 324.86 314.97 317.46 319.24L283.01 342.49C275.61 346.76 264.32 347.23 257.91 343.53" stroke-width="0" fill="none" clip-rule="evenodd"/></clipPath><clipPath id="clippath-58"><rect x="-300" y="-180.72" width="1200" height="900" stroke-width="0" fill="none"/></clipPath><clipPath id="clippath-59"><path d="M399.39 134.58 350.85 106.56 323.34 90.68 305.57 80.42 251.21 49.04 169.04 1.59C161.71-2.64 155.78 1.85 155.78 11.62L155.78 178.78 171.18 187.67 225.54 219.05 243.31 229.31 262.64 240.47 155.79 178.78 155.79 202.29C155.79 212.06 161.73 223.4 169.05 227.63L399.4 360.62C406.73 364.85 412.66 360.36 412.66 350.59L412.66 159.92C412.66 150.15 406.72 138.81 399.4 134.58" stroke-width="0" fill="none" clip-rule="evenodd"/></clipPath><clipPath id="clippath-60"><rect x="-300" y="-180.72" width="1200" height="900" stroke-width="0" fill="none"/></clipPath><clipPath id="clippath-61"><path d="M148.94 7.47 160.18 1 407.78 361.48 396.61 367.92" stroke-width="0" fill="none" clip-rule="evenodd"/></clipPath><clipPath id="clippath-62"><rect x="-300" y="-180.72" width="1200" height="900" stroke-width="0" fill="none"/></clipPath><clipPath id="clippath-63"><path d="M157.6 234.21 387.95 367.2C395.28 371.43 401.21 366.94 401.21 357.17L401.21 333.66 144.34 185.36 144.34 208.87C144.34 218.64 150.28 229.98 157.6 234.21" stroke-width="0" fill="none" clip-rule="evenodd"/></clipPath><clipPath id="clippath-64"><rect x="-300" y="-180.72" width="1200" height="900" stroke-width="0" fill="none"/></clipPath><clipPath id="clippath-65"><rect x="182.96" y="151.19" width="160.08" height="20.52" stroke-width="0" fill="none" transform="matrix(0.5 -0.866025 0.866025 0.5 -8.32 308.49)"/></clipPath><clipPath id="clippath-66"><rect x="-300" y="-180.72" width="1200" height="900" stroke-width="0" fill="none"/></clipPath><clipPath id="clippath-67"><path d="M157.6 8.18C150.27 3.95 144.34 8.44 144.34 18.21L144.34 185.36 159.74 194.25 239.78 55.62 157.6 8.18Z" stroke-width="0" fill="none" clip-rule="evenodd"/></clipPath><clipPath id="clippath-68"><rect x="-300" y="-180.72" width="1200" height="900" stroke-width="0" fill="none"/></clipPath><clipPath id="clippath-69"><path d="M401.22 166.51C401.22 156.74 395.28 145.4 387.96 141.17L339.42 113.15 259.38 251.78 401.22 333.67 401.22 166.51Z" stroke-width="0" fill="none" clip-rule="evenodd"/></clipPath><clipPath id="clippath-70"><rect x="-300" y="-180.72" width="1200" height="900" stroke-width="0" fill="none"/></clipPath><clipPath id="clippath-71"><rect x="146.9" y="109.24" width="160.08" height="62.76" stroke-width="0" fill="none" transform="matrix(0.5 -0.866025 0.866025 0.5 -8.32 266.84)"/></clipPath><clipPath id="clippath-72"><rect x="-300" y="-180.72" width="1200" height="900" stroke-width="0" fill="none"/></clipPath><clipPath id="clippath-73"><rect x="205.6" y="158.64" width="160.08" height="31.77" stroke-width="0" fill="none" transform="matrix(0.5 -0.866025 0.866025 0.5 -8.32 334.63)"/></clipPath><clipPath id="clippath-74"><rect x="-300" y="-180.72" width="1200" height="900" stroke-width="0" fill="none"/></clipPath><clipPath id="clippath-75"><path d="M262.22 180.53 262.22 189.26 243.17 178.26 243.17 169.53 248.13 172.39 246.29 162.45 236.24 156.65 234.18 164.34 239.36 167.33 239.36 176.06 222.2 166.16 222.2 157.43 226.99 160.2 234.54 130.36 229.39 127.39 229.39 118.66 254.68 133.26 254.68 141.99 249.47 138.98 257.6 177.87 262.22 180.54ZM244.71 153.96 241.48 136.54 238 150.09 244.71 153.96Z" stroke-width="0" fill="none" clip-rule="evenodd"/></clipPath><clipPath id="clippath-76"><rect x="-300" y="-180.72" width="1200" height="900" stroke-width="0" fill="none"/></clipPath><clipPath id="clippath-77"><path d="M284.28 193.26 284.28 201.99 263.87 190.2 263.87 181.47 268.8 184.32 268.8 150.12 263.87 147.27 263.87 138.54 284.28 150.33C289.03 153.07 292.7 156.68 295.29 161.14 297.88 165.61 299.17 170.35 299.17 175.38 299.17 178.25 298.71 180.59 297.81 182.41 296.9 184.22 295.74 185.35 294.31 185.78 292.89 186.21 291.27 186.13 289.44 185.53 287.61 184.93 285.32 183.84 282.58 182.25L278.88 180.11 278.88 190.14 284.28 193.26ZM278.88 171.5 280.38 172.37C283.83 174.36 286.06 174.9 287.05 173.97 288.04 173.05 288.54 171.47 288.54 169.24 288.54 167.36 288.2 165.56 287.51 163.84 286.82 162.12 286.03 160.85 285.14 160.02 284.25 159.2 282.79 158.2 280.77 157.03L278.88 155.94 278.88 171.5Z" stroke-width="0" fill="none" clip-rule="evenodd"/></clipPath><clipPath id="clippath-78"><rect x="-300" y="-180.72" width="1200" height="900" stroke-width="0" fill="none"/></clipPath><clipPath id="clippath-79"><path d="M301.46 211.91 301.46 203.18 307.34 206.57 307.34 172.38 301.46 168.98 301.46 160.26 323.35 172.89 323.35 181.62 317.42 178.2 317.42 212.39 323.35 215.82 323.35 224.54 301.46 211.91Z" stroke-width="0" fill="none" clip-rule="evenodd"/></clipPath><clipPath id="clippath-80"><rect x="-300" y="-180.72" width="1200" height="900" stroke-width="0" fill="none"/></clipPath><clipPath id="clippath-81"><path d="M339.02 211.94 332.13 207.96C330.55 207.05 329.25 204.57 329.25 202.46L329.25 201.79C329.25 199.68 330.54 198.7 332.13 199.61L339.02 203.59C340.6 204.5 341.9 206.98 341.9 209.09L341.9 209.76C341.9 211.87 340.6 212.85 339.02 211.94" stroke-width="0" fill="none" clip-rule="evenodd"/></clipPath><clipPath id="clippath-82"><rect x="-300" y="-180.72" width="1200" height="900" stroke-width="0" fill="none"/></clipPath><clipPath id="clippath-83"><path d="M358.74 223.32 351.85 219.34C350.27 218.43 348.97 215.95 348.97 213.84L348.97 213.17C348.97 211.06 350.26 210.08 351.85 210.99L358.74 214.97C360.32 215.88 361.62 218.36 361.62 220.47L361.62 221.14C361.62 223.25 360.32 224.23 358.74 223.32" stroke-width="0" fill="none" clip-rule="evenodd"/></clipPath><clipPath id="clippath-84"><rect x="-300" y="-180.72" width="1200" height="900" stroke-width="0" fill="none"/></clipPath><clipPath id="clippath-85"><path d="M193.71 128.04 186.82 124.06C185.24 123.15 183.94 120.67 183.94 118.56L183.94 117.89C183.94 115.78 185.23 114.8 186.82 115.71L193.71 119.69C195.29 120.6 196.59 123.08 196.59 125.19L196.59 125.86C196.59 127.97 195.29 128.95 193.71 128.04" stroke-width="0" fill="none" clip-rule="evenodd"/></clipPath><clipPath id="clippath-86"><rect x="-300" y="-180.72" width="1200" height="900" stroke-width="0" fill="none"/></clipPath><clipPath id="clippath-87"><path d="M213.43 139.43 206.54 135.45C204.96 134.54 203.66 132.06 203.66 129.95L203.66 129.28C203.66 127.17 204.95 126.19 206.54 127.1L213.43 131.08C215.01 131.99 216.31 134.47 216.31 136.58L216.31 137.25C216.31 139.36 215.01 140.34 213.43 139.43" stroke-width="0" fill="none" clip-rule="evenodd"/></clipPath><clipPath id="clippath-88"><rect x="-300" y="-180.72" width="1200" height="900" stroke-width="0" fill="none"/></clipPath><clipPath id="clippath-89"><path d="M177.89 182.1 106.1 140.65C104 139.44 102.07 139.4 100.62 140.31L100.62 140.31C100.62 140.31 92.65 144.92 92.65 144.92L97.92 160.6 97.92 327.76C97.92 333.76 101.6 340.8 106.1 343.4L172.15 381.53 175 390.02 183.14 385.32 183.14 385.32C184.93 384.35 186.07 382 186.07 378.66L186.07 197.74C186.07 191.74 182.39 184.7 177.89 182.1" stroke-width="0" fill="none" clip-rule="evenodd"/></clipPath><clipPath id="clippath-90"><rect x="-300" y="-180.72" width="1200" height="900" stroke-width="0" fill="none"/></clipPath><clipPath id="clippath-91"><path d="M178.01 202.41C178.01 196.41 174.33 189.37 169.83 186.77L98.04 145.32C93.54 142.72 89.85 145.5 89.85 151.51L89.85 167.29 178.01 218.19 178.01 202.41Z" stroke-width="0" fill="none" clip-rule="evenodd"/></clipPath><clipPath id="clippath-92"><rect x="-300" y="-180.72" width="1200" height="900" stroke-width="0" fill="none"/></clipPath><clipPath id="clippath-93"><path d="M89.85 332.43C89.85 338.43 93.53 345.47 98.03 348.07L169.82 389.52C174.32 392.12 178 389.34 178 383.33L178 367.55 89.84 316.65 89.84 332.43Z" stroke-width="0" fill="none" clip-rule="evenodd"/></clipPath><clipPath id="clippath-94"><rect x="-300" y="-180.72" width="1200" height="900" stroke-width="0" fill="none"/></clipPath><clipPath id="clippath-95"><path d="M145.29 187.17 122.58 174.06C122.08 173.77 121.67 172.98 121.67 172.31 121.67 171.64 122.08 171.33 122.58 171.62L145.29 184.73C145.79 185.02 146.2 185.81 146.2 186.48 146.2 187.15 145.79 187.46 145.29 187.17" stroke-width="0" fill="none" clip-rule="evenodd"/></clipPath><clipPath id="clippath-96"><rect x="-300" y="-180.72" width="1200" height="900" stroke-width="0" fill="none"/></clipPath><clipPath id="clippath-97"><path d="M164.87 210.6 140.39 196.47 124.58 187.34 89.85 167.29 89.85 247.5 89.85 284.01 89.85 316.66 100.19 322.63 178.01 367.55 178.01 218.19 164.87 210.6Z" stroke-width="0" fill="none" clip-rule="evenodd"/></clipPath><clipPath id="clippath-98"><rect x="-300" y="-180.72" width="1200" height="900" stroke-width="0" fill="none"/></clipPath><clipPath id="clippath-99"><path d="M107.84 206.64 101.71 203.1C100.54 202.42 99.58 200.59 99.58 199.02L99.58 198.72C99.58 197.16 100.54 196.43 101.71 197.11L107.84 200.65C109.01 201.33 109.97 203.16 109.97 204.73L109.97 205.03C109.97 206.59 109.01 207.32 107.84 206.64" stroke-width="0" fill="none" clip-rule="evenodd"/></clipPath><clipPath id="clippath-100"><rect x="-300" y="-180.72" width="1200" height="900" stroke-width="0" fill="none"/></clipPath><clipPath id="clippath-101"><path d="M122.42 215.06 116.29 211.52C115.12 210.84 114.16 209.01 114.16 207.44L114.16 207.14C114.16 205.58 115.12 204.85 116.29 205.53L122.42 209.07C123.59 209.75 124.55 211.58 124.55 213.15L124.55 213.45C124.55 215.01 123.59 215.74 122.42 215.06" stroke-width="0" fill="none" clip-rule="evenodd"/></clipPath><clipPath id="clippath-102"><rect x="-300" y="-180.72" width="1200" height="900" stroke-width="0" fill="none"/></clipPath><clipPath id="clippath-103"><path d="M136.99 223.47 130.86 219.93C129.69 219.25 128.73 217.42 128.73 215.85L128.73 215.55C128.73 213.99 129.69 213.26 130.86 213.94L136.99 217.48C138.16 218.16 139.12 219.99 139.12 221.56L139.12 221.86C139.12 223.42 138.16 224.15 136.99 223.47" stroke-width="0" fill="none" clip-rule="evenodd"/></clipPath><clipPath id="clippath-104"><rect x="-300" y="-180.72" width="1200" height="900" stroke-width="0" fill="none"/></clipPath><clipPath id="clippath-105"><path d="M151.57 231.89 145.44 228.35C144.27 227.67 143.31 225.84 143.31 224.27L143.31 223.97C143.31 222.4 144.27 221.68 145.44 222.36L151.57 225.9C152.74 226.58 153.7 228.41 153.7 229.98L153.7 230.28C153.7 231.84 152.74 232.57 151.57 231.89" stroke-width="0" fill="none" clip-rule="evenodd"/></clipPath><clipPath id="clippath-106"><rect x="-300" y="-180.72" width="1200" height="900" stroke-width="0" fill="none"/></clipPath><clipPath id="clippath-107"><path d="M166.15 240.31 160.02 236.77C158.85 236.09 157.89 234.26 157.89 232.69L157.89 232.39C157.89 230.82 158.85 230.1 160.02 230.78L166.15 234.32C167.32 235 168.28 236.83 168.28 238.4L168.28 238.7C168.28 240.26 167.32 240.99 166.15 240.31" stroke-width="0" fill="none" clip-rule="evenodd"/></clipPath><clipPath id="clippath-108"><rect x="-300" y="-180.72" width="1200" height="900" stroke-width="0" fill="none"/></clipPath><clipPath id="clippath-109"><path d="M107.84 218.77 101.71 215.23C100.54 214.55 99.58 212.72 99.58 211.15L99.58 210.85C99.58 209.28 100.54 208.56 101.71 209.24L107.84 212.78C109.01 213.46 109.97 215.29 109.97 216.86L109.97 217.16C109.97 218.72 109.01 219.45 107.84 218.77" stroke-width="0" fill="none" clip-rule="evenodd"/></clipPath><clipPath id="clippath-110"><rect x="-300" y="-180.72" width="1200" height="900" stroke-width="0" fill="none"/></clipPath><clipPath id="clippath-111"><path d="M122.42 227.18 116.29 223.64C115.12 222.96 114.16 221.13 114.16 219.56L114.16 219.26C114.16 217.69 115.12 216.97 116.29 217.65L122.42 221.19C123.59 221.87 124.55 223.7 124.55 225.27L124.55 225.57C124.55 227.13 123.59 227.86 122.42 227.18" stroke-width="0" fill="none" clip-rule="evenodd"/></clipPath><clipPath id="clippath-112"><rect x="-300" y="-180.72" width="1200" height="900" stroke-width="0" fill="none"/></clipPath><clipPath id="clippath-113"><path d="M136.99 235.6 130.86 232.06C129.69 231.38 128.73 229.55 128.73 227.98L128.73 227.68C128.73 226.12 129.69 225.39 130.86 226.07L136.99 229.61C138.16 230.29 139.12 232.12 139.12 233.69L139.12 233.99C139.12 235.55 138.16 236.28 136.99 235.6" stroke-width="0" fill="none" clip-rule="evenodd"/></clipPath><clipPath id="clippath-114"><rect x="-300" y="-180.72" width="1200" height="900" stroke-width="0" fill="none"/></clipPath><clipPath id="clippath-115"><path d="M151.57 244.01 145.44 240.47C144.27 239.79 143.31 237.96 143.31 236.39L143.31 236.09C143.31 234.53 144.27 233.8 145.44 234.48L151.57 238.02C152.74 238.7 153.7 240.53 153.7 242.1L153.7 242.4C153.7 243.96 152.74 244.69 151.57 244.01" stroke-width="0" fill="none" clip-rule="evenodd"/></clipPath><clipPath id="clippath-116"><rect x="-300" y="-180.72" width="1200" height="900" stroke-width="0" fill="none"/></clipPath><clipPath id="clippath-117"><path d="M166.15 252.43 160.02 248.89C158.85 248.21 157.89 246.38 157.89 244.81L157.89 244.51C157.89 242.95 158.85 242.22 160.02 242.9L166.15 246.44C167.32 247.12 168.28 248.95 168.28 250.52L168.28 250.82C168.28 252.38 167.32 253.11 166.15 252.43" stroke-width="0" fill="none" clip-rule="evenodd"/></clipPath><clipPath id="clippath-118"><rect x="-300" y="-180.72" width="1200" height="900" stroke-width="0" fill="none"/></clipPath><clipPath id="clippath-119"><path d="M107.84 230.89 101.71 227.35C100.54 226.67 99.58 224.84 99.58 223.27L99.58 222.97C99.58 221.41 100.54 220.68 101.71 221.36L107.84 224.9C109.01 225.58 109.97 227.41 109.97 228.98L109.97 229.28C109.97 230.84 109.01 231.57 107.84 230.89" stroke-width="0" fill="none" clip-rule="evenodd"/></clipPath><clipPath id="clippath-120"><rect x="-300" y="-180.72" width="1200" height="900" stroke-width="0" fill="none"/></clipPath><clipPath id="clippath-121"><path d="M122.42 239.3 116.29 235.76C115.12 235.08 114.16 233.25 114.16 231.68L114.16 231.38C114.16 229.82 115.12 229.09 116.29 229.77L122.42 233.31C123.59 233.99 124.55 235.82 124.55 237.39L124.55 237.69C124.55 239.25 123.59 239.98 122.42 239.3" stroke-width="0" fill="none" clip-rule="evenodd"/></clipPath><clipPath id="clippath-122"><rect x="-300" y="-180.72" width="1200" height="900" stroke-width="0" fill="none"/></clipPath><clipPath id="clippath-123"><path d="M136.99 247.72 130.86 244.18C129.69 243.5 128.73 241.67 128.73 240.1L128.73 239.8C128.73 238.24 129.69 237.51 130.86 238.19L136.99 241.73C138.16 242.41 139.12 244.24 139.12 245.81L139.12 246.11C139.12 247.67 138.16 248.4 136.99 247.72" stroke-width="0" fill="none" clip-rule="evenodd"/></clipPath><clipPath id="clippath-124"><rect x="-300" y="-180.72" width="1200" height="900" stroke-width="0" fill="none"/></clipPath><clipPath id="clippath-125"><path d="M151.57 256.14 145.44 252.6C144.27 251.92 143.31 250.09 143.31 248.52L143.31 248.22C143.31 246.66 144.27 245.93 145.44 246.61L151.57 250.15C152.74 250.83 153.7 252.66 153.7 254.23L153.7 254.53C153.7 256.09 152.74 256.82 151.57 256.14" stroke-width="0" fill="none" clip-rule="evenodd"/></clipPath><clipPath id="clippath-126"><rect x="-300" y="-180.72" width="1200" height="900" stroke-width="0" fill="none"/></clipPath><clipPath id="clippath-127"><path d="M166.15 264.55 160.02 261.01C158.85 260.33 157.89 258.5 157.89 256.93L157.89 256.63C157.89 255.07 158.85 254.34 160.02 255.02L166.15 258.56C167.32 259.24 168.28 261.07 168.28 262.64L168.28 262.94C168.28 264.5 167.32 265.23 166.15 264.55" stroke-width="0" fill="none" clip-rule="evenodd"/></clipPath><clipPath id="clippath-128"><rect x="-300" y="-180.72" width="1200" height="900" stroke-width="0" fill="none"/></clipPath><clipPath id="clippath-129"><path d="M107.84 243.01 101.71 239.47C100.54 238.79 99.58 236.96 99.58 235.39L99.58 235.09C99.58 233.53 100.54 232.8 101.71 233.48L107.84 237.02C109.01 237.7 109.97 239.53 109.97 241.1L109.97 241.4C109.97 242.96 109.01 243.69 107.84 243.01" stroke-width="0" fill="none" clip-rule="evenodd"/></clipPath><clipPath id="clippath-130"><rect x="-300" y="-180.72" width="1200" height="900" stroke-width="0" fill="none"/></clipPath><clipPath id="clippath-131"><path d="M122.42 251.43 116.29 247.89C115.12 247.21 114.16 245.38 114.16 243.81L114.16 243.51C114.16 241.95 115.12 241.22 116.29 241.9L122.42 245.44C123.59 246.12 124.55 247.95 124.55 249.52L124.55 249.82C124.55 251.38 123.59 252.11 122.42 251.43" stroke-width="0" fill="none" clip-rule="evenodd"/></clipPath><clipPath id="clippath-132"><rect x="-300" y="-180.72" width="1200" height="900" stroke-width="0" fill="none"/></clipPath><clipPath id="clippath-133"><path d="M136.99 259.84 130.86 256.3C129.69 255.62 128.73 253.79 128.73 252.22L128.73 251.92C128.73 250.35 129.69 249.63 130.86 250.31L136.99 253.85C138.16 254.53 139.12 256.36 139.12 257.93L139.12 258.23C139.12 259.79 138.16 260.52 136.99 259.84" stroke-width="0" fill="none" clip-rule="evenodd"/></clipPath><clipPath id="clippath-134"><rect x="-300" y="-180.72" width="1200" height="900" stroke-width="0" fill="none"/></clipPath><clipPath id="clippath-135"><path d="M151.57 268.26 145.44 264.72C144.27 264.04 143.31 262.21 143.31 260.64L143.31 260.34C143.31 258.77 144.27 258.05 145.44 258.73L151.57 262.27C152.74 262.95 153.7 264.78 153.7 266.35L153.7 266.65C153.7 268.21 152.74 268.94 151.57 268.26" stroke-width="0" fill="none" clip-rule="evenodd"/></clipPath><clipPath id="clippath-136"><rect x="-300" y="-180.72" width="1200" height="900" stroke-width="0" fill="none"/></clipPath><clipPath id="clippath-137"><path d="M166.15 276.68 160.02 273.14C158.85 272.46 157.89 270.63 157.89 269.06L157.89 268.76C157.89 267.19 158.85 266.47 160.02 267.15L166.15 270.69C167.32 271.37 168.28 273.2 168.28 274.77L168.28 275.07C168.28 276.63 167.32 277.36 166.15 276.68" stroke-width="0" fill="none" clip-rule="evenodd"/></clipPath><clipPath id="clippath-138"><rect x="-300" y="-180.72" width="1200" height="900" stroke-width="0" fill="none"/></clipPath><clipPath id="clippath-139"><path d="M107.84 304.07 101.71 300.53C100.54 299.85 99.58 298.02 99.58 296.45L99.58 296.15C99.58 294.59 100.54 293.86 101.71 294.54L107.84 298.08C109.01 298.76 109.97 300.59 109.97 302.16L109.97 302.46C109.97 304.02 109.01 304.75 107.84 304.07" stroke-width="0" fill="none" clip-rule="evenodd"/></clipPath><clipPath id="clippath-140"><rect x="-300" y="-180.72" width="1200" height="900" stroke-width="0" fill="none"/></clipPath><clipPath id="clippath-141"><path d="M122.42 312.48 116.29 308.94C115.12 308.26 114.16 306.43 114.16 304.86L114.16 304.56C114.16 303 115.12 302.27 116.29 302.95L122.42 306.49C123.59 307.17 124.55 309 124.55 310.57L124.55 310.87C124.55 312.43 123.59 313.16 122.42 312.48" stroke-width="0" fill="none" clip-rule="evenodd"/></clipPath><clipPath id="clippath-142"><rect x="-300" y="-180.72" width="1200" height="900" stroke-width="0" fill="none"/></clipPath><clipPath id="clippath-143"><path d="M136.99 320.9 130.86 317.36C129.69 316.68 128.73 314.85 128.73 313.28L128.73 312.98C128.73 311.42 129.69 310.69 130.86 311.37L136.99 314.91C138.16 315.59 139.12 317.42 139.12 318.99L139.12 319.29C139.12 320.85 138.16 321.58 136.99 320.9" stroke-width="0" fill="none" clip-rule="evenodd"/></clipPath><clipPath id="clippath-144"><rect x="-300" y="-180.72" width="1200" height="900" stroke-width="0" fill="none"/></clipPath><clipPath id="clippath-145"><path d="M151.57 329.31 145.44 325.77C144.27 325.09 143.31 323.26 143.31 321.69L143.31 321.39C143.31 319.83 144.27 319.1 145.44 319.78L151.57 323.32C152.74 324 153.7 325.83 153.7 327.4L153.7 327.7C153.7 329.26 152.74 329.99 151.57 329.31" stroke-width="0" fill="none" clip-rule="evenodd"/></clipPath><clipPath id="clippath-146"><rect x="-300" y="-180.72" width="1200" height="900" stroke-width="0" fill="none"/></clipPath><clipPath id="clippath-147"><path d="M166.15 337.73 160.02 334.19C158.85 333.51 157.89 331.68 157.89 330.11L157.89 329.81C157.89 328.24 158.85 327.52 160.02 328.2L166.15 331.74C167.32 332.42 168.28 334.25 168.28 335.82L168.28 336.12C168.28 337.68 167.32 338.41 166.15 337.73" stroke-width="0" fill="none" clip-rule="evenodd"/></clipPath><clipPath id="clippath-148"><rect x="-300" y="-180.72" width="1200" height="900" stroke-width="0" fill="none"/></clipPath><clipPath id="clippath-149"><path d="M380.66 26.41 369.69 32.73 380.66 67.93 380.66 129.97 398.53 140.29 398.53 154.62 387.57 180.71 398.53 174.4 423.05 154.44 440.6 164.57 486.81 203.9 497.78 197.59 497.78 94.03 380.66 26.41Z" stroke-width="0" fill="none" clip-rule="evenodd"/></clipPath><clipPath id="clippath-150"><rect x="-300" y="-180.72" width="1200" height="900" stroke-width="0" fill="none"/></clipPath><clipPath id="clippath-151"><path d="M486.81 100.34 369.69 32.73 369.69 136.28 387.57 146.6 387.57 180.71 412.09 160.76 486.81 203.9 486.81 100.34Z" stroke-width="0" fill="none" clip-rule="evenodd"/></clipPath><clipPath id="clippath-152"><rect x="-300" y="-180.72" width="1200" height="900" stroke-width="0" fill="none"/></clipPath><clipPath id="clippath-153"><path d="M459.31 133.14C458.93 130.57 457.36 127.89 455.49 126.81L450.39 123.86C449.83 120.49 448.93 117.11 447.75 113.81L451.36 111.08C452.68 110.08 452.85 107.45 451.88 104.87 451.73 104.48 451.56 104.1 451.36 103.72L450.29 101.67 450.29 101.67C450.29 101.67 449.22 99.62 449.22 99.62 449.02 99.24 448.81 98.89 448.58 98.56 447.07 96.39 445.02 95.43 443.7 96.43L440.09 99.16C438.13 96.45 435.98 94.01 433.7 91.95L433.7 85.14C433.7 82.65 432.37 79.78 430.61 78.26 430.35 78.03 430.08 77.84 429.8 77.68L428.28 76.8 426.76 75.92C426.48 75.76 426.21 75.64 425.95 75.57 424.19 75.05 422.85 76.38 422.85 78.88L422.85 85.69C420.57 85.12 418.42 85.07 416.46 85.53L412.85 78.64C411.53 76.12 409.48 74.7 407.97 75.13 407.74 75.19 407.53 75.3 407.33 75.45L405.18 77.07C404.98 77.22 404.81 77.41 404.66 77.63 403.68 79.08 403.86 81.92 405.18 84.44L408.79 91.33C407.6 93.25 406.7 95.6 406.15 98.32L401.05 95.37C399.18 94.29 397.61 95.16 397.23 97.29 397.17 97.61 397.14 97.95 397.14 98.32L397.14 102.37C397.14 102.74 397.17 103.12 397.23 103.5 397.61 106.07 399.18 108.75 401.05 109.83L406.15 112.78C406.71 116.15 407.6 119.53 408.79 122.83L405.18 125.56C403.86 126.56 403.69 129.2 404.66 131.77 404.81 132.16 404.98 132.54 405.18 132.92L407.33 137.03C407.53 137.41 407.74 137.76 407.97 138.09 409.48 140.27 411.53 141.22 412.85 140.22L416.46 137.49C418.42 140.2 420.57 142.64 422.85 144.7L422.85 151.51C422.85 154 424.18 156.87 425.95 158.39 426.21 158.62 426.48 158.81 426.76 158.97L428.28 159.85 429.8 160.73C430.08 160.89 430.35 161.01 430.61 161.08 432.37 161.6 433.7 160.27 433.7 157.77L433.7 150.96C435.98 151.53 438.13 151.58 440.09 151.12L443.7 158.01C445.02 160.53 447.07 161.95 448.58 161.52 448.81 161.46 449.02 161.35 449.22 161.2L450.29 160.39 450.29 160.39C450.29 160.39 451.36 159.58 451.36 159.58 451.56 159.43 451.73 159.24 451.88 159.02 452.86 157.57 452.69 154.73 451.36 152.21L447.75 145.32C448.94 143.4 449.84 141.05 450.39 138.33L455.49 141.28C457.36 142.36 458.93 141.49 459.31 139.36 459.37 139.04 459.4 138.7 459.4 138.33L459.4 134.28C459.4 133.91 459.37 133.53 459.31 133.15" stroke-width="0" fill="none" clip-rule="evenodd"/></clipPath><clipPath id="clippath-154"><rect x="-300" y="-180.72" width="1200" height="900" stroke-width="0" fill="none"/></clipPath><clipPath id="clippath-155"><path d="M440.19 125.21C440.19 134 434.84 138.04 428.25 134.24 421.66 130.43 416.31 120.22 416.31 111.42 416.31 102.62 421.66 98.59 428.25 102.39 434.84 106.19 440.19 116.41 440.19 125.2" stroke-width="0" fill="none" clip-rule="evenodd"/></clipPath><clipPath id="clippath-156"><rect x="-300" y="-180.72" width="1200" height="900" stroke-width="0" fill="none"/></clipPath><clipPath id="clippath-157"><path d="M411.95 430.84C411.23 425.96 408.24 420.85 404.69 418.8L394.99 413.2C393.93 406.8 392.22 400.36 389.96 394.1L396.82 388.92C399.33 387.02 399.66 382.01 397.8 377.11 397.52 376.37 397.2 375.64 396.82 374.92L394.78 371.02 394.78 371.02C394.78 371.02 392.74 367.12 392.74 367.12 392.36 366.4 391.95 365.73 391.52 365.11 388.68 361.02 384.84 359.21 382.32 361L382.32 361C382.32 361 375 365.2 375 365.2L374.72 365.35 374.67 365.29C371.14 360.51 367.29 356.2 363.22 352.52L363.22 339.58C363.22 334.84 360.69 329.39 357.34 326.5 356.84 326.07 356.33 325.69 355.8 325.39L352.91 323.72 350.02 322.05C349.49 321.74 348.98 321.52 348.48 321.38 347.11 320.98 345.87 321.17 344.89 321.86L344.89 321.86C344.89 321.86 337.81 325.96 337.81 325.96L334.73 339.72 334.72 339.72C333.25 339.78 331.82 339.97 330.45 340.29L323.59 327.19C321.08 322.39 317.18 319.71 314.31 320.52 313.95 320.62 313.61 320.79 313.29 321L313.29 321C313.29 321 305.9 325.26 305.9 325.26L308.01 355.85 305.26 361.38 301.15 359C299.21 357.88 297.45 357.87 296.12 358.74L296.12 358.74C296.12 358.74 288.57 363.08 288.57 363.08L293.73 365.25 293.73 372.32C293.73 373.02 293.79 373.75 293.89 374.47 294.6 379.35 297.6 384.46 301.15 386.51L305.11 388.8 308.02 415.75 308.32 417.09C306.47 419.34 306.38 423.82 308.04 428.21 308.32 428.95 308.64 429.68 309.02 430.4L313.08 438.15 315.52 448.96 323 444.64 323.08 444.6C323.08 444.6 323.13 444.57 323.16 444.56L323.25 444.51 334.75 457.34 352.67 488.26 360.35 483.82 360.35 483.82C362.1 483.01 363.24 480.84 363.24 477.66L363.24 470.13 367.52 469.57 384.62 488.92 391.99 484.64 391.99 484.64C392.25 484.52 392.51 484.38 392.74 484.2L394.78 482.66 394.78 482.66C394.78 482.66 396.82 481.12 396.82 481.12 397.2 480.83 397.52 480.48 397.8 480.06 399.66 477.3 399.33 471.91 396.82 467.11L389.96 454.01C390.99 452.34 391.9 450.49 392.7 448.49L392.71 448.49C392.71 448.49 401.85 451.12 401.85 451.12L409.54 446.69 409.54 446.69C410.74 445.99 411.61 444.6 411.96 442.66 412.07 442.06 412.12 441.4 412.12 440.7L412.12 433C412.12 432.3 412.06 431.57 411.96 430.85" stroke-width="0" fill="none" clip-rule="evenodd"/></clipPath><clipPath id="clippath-158"><rect x="-300" y="-180.72" width="1200" height="900" stroke-width="0" fill="none"/></clipPath><clipPath id="clippath-159"><path d="M404.08 435.37C403.36 430.49 400.37 425.38 396.82 423.33L387.12 417.73C386.06 411.33 384.35 404.89 382.09 398.63L388.95 393.45C391.46 391.55 391.79 386.54 389.93 381.64 389.65 380.9 389.33 380.17 388.95 379.45L386.91 375.55 386.91 375.55C386.91 375.55 384.87 371.65 384.87 371.65 384.49 370.93 384.08 370.26 383.65 369.64 380.78 365.51 376.88 363.69 374.36 365.59L367.5 370.77C363.78 365.61 359.69 360.98 355.35 357.05L355.35 344.11C355.35 339.37 352.82 333.92 349.47 331.03 348.97 330.6 348.46 330.22 347.93 329.92L345.04 328.25 342.15 326.58C341.62 326.27 341.11 326.05 340.61 325.91 337.26 324.93 334.73 327.45 334.73 332.2L334.73 345.14C330.39 344.05 326.3 343.96 322.58 344.83L315.72 331.73C313.21 326.93 309.31 324.25 306.43 325.06 306 325.18 305.59 325.38 305.21 325.66L301.13 328.75C300.75 329.03 300.43 329.39 300.15 329.81 298.29 332.57 298.62 337.96 301.13 342.76L307.99 355.86C305.73 359.51 304.02 363.98 302.96 369.16L293.26 363.56C289.7 361.51 286.71 363.16 286 367.21 285.89 367.81 285.84 368.47 285.84 369.17L285.84 376.87C285.84 377.57 285.9 378.3 286 379.02 286.71 383.9 289.71 389.01 293.26 391.06L302.96 396.66C304.02 403.06 305.73 409.5 307.99 415.76L301.13 420.94C298.62 422.84 298.29 427.85 300.15 432.75 300.43 433.49 300.75 434.22 301.13 434.94L305.21 442.74C305.59 443.46 306 444.13 306.43 444.75 309.3 448.88 313.2 450.7 315.72 448.8L322.58 443.62C326.3 448.78 330.39 453.41 334.73 457.34L334.73 470.28C334.73 475.02 337.26 480.47 340.61 483.36 341.11 483.79 341.62 484.16 342.15 484.47L345.04 486.14 347.93 487.81C348.46 488.11 348.97 488.34 349.47 488.48 352.82 489.46 355.35 486.94 355.35 482.19L355.35 469.25C359.69 470.34 363.78 470.43 367.5 469.56L374.36 482.66C376.87 487.46 380.77 490.14 383.65 489.33 384.08 489.21 384.49 489.01 384.87 488.73L386.91 487.19 386.91 487.19C386.91 487.19 388.95 485.64 388.95 485.64 389.33 485.36 389.65 485 389.93 484.58 391.79 481.82 391.46 476.43 388.95 471.63L382.09 458.53C384.35 454.88 386.06 450.41 387.12 445.23L396.82 450.83C400.38 452.88 403.37 451.23 404.08 447.18 404.19 446.58 404.24 445.92 404.24 445.22L404.24 437.52C404.24 436.82 404.18 436.09 404.08 435.37" stroke-width="0" fill="none" clip-rule="evenodd"/></clipPath><clipPath id="clippath-160"><rect x="-300" y="-180.72" width="1200" height="900" stroke-width="0" fill="none"/></clipPath><clipPath id="clippath-161"><path d="M377.21 425.77C377.21 449.46 362.8 460.35 345.03 450.09 327.26 439.83 312.85 412.31 312.85 388.61 312.85 364.91 327.26 354.03 345.03 364.29 362.8 374.55 377.21 402.07 377.21 425.77" stroke-width="0" fill="none" clip-rule="evenodd"/></clipPath><clipPath id="clippath-162"><rect x="-300" y="-180.72" width="1200" height="900" stroke-width="0" fill="none"/></clipPath><clipPath id="clippath-163"><path d="M316.72 389.5 335.44 387.44 335.44 391.16 319.66 392.59 319.66 392.7 335.44 412.36 335.44 416.07 316.72 392.4 316.72 389.5Z" stroke-width="0" fill="none" clip-rule="evenodd"/></clipPath><clipPath id="clippath-164"><rect x="-300" y="-180.72" width="1200" height="900" stroke-width="0" fill="none"/></clipPath><clipPath id="clippath-165"><path d="M338.08 419.74 349.34 387.23 352.08 388.82 340.78 421.3 338.08 419.74Z" stroke-width="0" fill="none" clip-rule="evenodd"/></clipPath><clipPath id="clippath-166"><rect x="-300" y="-180.72" width="1200" height="900" stroke-width="0" fill="none"/></clipPath><clipPath id="clippath-167"><path d="M373.35 425.15 354.63 427.15 354.63 423.44 370.53 422.07 370.53 421.96 354.63 402.24 354.63 398.52 373.35 422.14 373.35 425.15Z" stroke-width="0" fill="none" clip-rule="evenodd"/></clipPath><clipPath id="clippath-168"><rect x="-300" y="-180.72" width="1200" height="900" stroke-width="0" fill="none"/></clipPath><clipPath id="clippath-169"><rect x="40" y="425.13" width="99.9" height="57.33" stroke-width="0" fill="none"/></clipPath><clipPath id="clippath-170"><rect x="-300" y="-180.72" width="1200" height="900" stroke-width="0" fill="none"/></clipPath><clipPath id="clippath-171"><rect x="40" y="424.28" width="100" height="59" stroke-width="0" fill="none"/></clipPath><clipPath id="clippath-172"><path d="M127.67 460.63 138.28 461.07C139.34 458.75 139.9 456.31 139.9 453.8 139.9 452.71 139.79 451.64 139.59 450.59L128.99 450.15C128.18 447.29 126.44 444.6 123.95 442.2L131.47 437.86C127.78 434.7 123.02 431.98 117.48 429.88L109.96 434.22C105.83 432.83 101.21 431.85 96.29 431.4L95.53 425.32C93.7 425.2 91.83 425.14 89.95 425.14 85.61 425.14 81.39 425.46 77.37 426.06L78.13 432.15C74.8 432.75 71.67 433.59 68.78 434.64L61.31 430.33C56.62 432.22 52.51 434.56 49.2 437.24L56.67 441.55C54.8 443.22 53.29 445.05 52.23 446.98L41.62 446.54C40.56 448.86 40 451.3 40 453.81 40 454.9 40.11 455.97 40.31 457.02L50.91 457.46C51.72 460.32 53.46 463.01 55.95 465.41L48.43 469.75C52.12 472.91 56.88 475.63 62.42 477.73L69.94 473.39C74.07 474.78 78.69 475.76 83.61 476.21L84.37 482.29C86.2 482.41 88.07 482.47 89.95 482.47 94.29 482.47 98.51 482.15 102.53 481.55L101.77 475.46C105.1 474.86 108.23 474.02 111.12 472.97L118.59 477.28C123.28 475.39 127.39 473.05 130.7 470.37L123.23 466.05C125.1 464.38 126.61 462.55 127.67 460.62M82.42 466.65C82.21 466.61 82.01 466.57 81.8 466.53 75.35 465.17 70.22 462.24 67.81 458.55 67.72 458.41 67.64 458.28 67.55 458.14 66.75 456.78 66.31 455.32 66.31 453.8 66.31 451.84 67.04 449.97 68.35 448.29L68.87 447.66C71.15 445.09 74.82 442.99 79.3 441.69L80.46 441.38C83.36 440.65 86.56 440.25 89.93 440.25 92.56 440.25 95.09 440.5 97.46 440.95 97.67 440.99 97.87 441.03 98.08 441.07 104.53 442.43 109.66 445.36 112.07 449.05 112.16 449.19 112.24 449.32 112.32 449.46 113.12 450.82 113.56 452.28 113.56 453.8 113.56 455.76 112.83 457.63 111.52 459.31 111.35 459.52 111.18 459.73 111 459.94 108.72 462.51 105.05 464.61 100.57 465.91L99.41 466.22C96.51 466.95 93.31 467.36 89.94 467.36 87.31 467.36 84.78 467.11 82.41 466.66" stroke-width="0" fill="none" clip-rule="evenodd"/></clipPath><clipPath id="clippath-173"><rect x="39" y="424.28" width="101" height="59" stroke-width="0" fill="none"/></clipPath><clipPath id="clippath-174"><rect x="40" y="415.29" width="99.9" height="66.26" stroke-width="0" fill="none"/></clipPath><clipPath id="clippath-175"><rect x="-300" y="-180.72" width="1200" height="900" stroke-width="0" fill="none"/></clipPath><clipPath id="clippath-176"><rect x="40" y="415.28" width="100" height="67" stroke-width="0" fill="none"/></clipPath><clipPath id="clippath-177"><path d="M40 453.79 40 443.03 49.2 436.99 49.2 426.46 77.37 423.58 77.37 415.29 108.04 428.64 131.47 427.09 131.47 437.85 120.22 438.36 139.9 443.03 139.9 453.79 130.7 459.61 130.7 470.37 102.53 470.78 102.53 481.54 70.04 465.7 48.43 469.74 48.43 458.98 67.19 455.95 97.17 460.66 119.14 446.76 99.19 436 61.64 440.82 60.18 453.79 40 453.79Z" stroke-width="0" fill="none" clip-rule="evenodd"/></clipPath><clipPath id="clippath-178"><rect x="39" y="415.28" width="101" height="67" stroke-width="0" fill="none"/></clipPath><clipPath id="clippath-179"><rect x="40" y="414.37" width="99.9" height="57.33" stroke-width="0" fill="none"/></clipPath><clipPath id="clippath-180"><rect x="-300" y="-180.72" width="1200" height="900" stroke-width="0" fill="none"/></clipPath><clipPath id="clippath-181"><rect x="40" y="414.28" width="100" height="58" stroke-width="0" fill="none"/></clipPath><clipPath id="clippath-182"><path d="M127.67 449.87 138.28 450.31C139.34 447.99 139.9 445.55 139.9 443.04 139.9 441.95 139.79 440.88 139.59 439.83L128.99 439.39C128.18 436.52 126.44 433.84 123.95 431.44L131.47 427.1C127.78 423.94 123.02 421.22 117.48 419.12L109.96 423.46C105.83 422.07 101.21 421.09 96.29 420.64L95.53 414.56C93.7 414.44 91.83 414.38 89.95 414.38 85.61 414.38 81.39 414.7 77.37 415.3L78.13 421.39C74.8 421.99 71.67 422.83 68.78 423.88L61.31 419.57C56.62 421.46 52.51 423.8 49.2 426.48L56.67 430.79C54.8 432.46 53.29 434.29 52.23 436.22L41.62 435.78C40.56 438.1 40 440.54 40 443.05 40 444.14 40.11 445.21 40.31 446.26L50.91 446.7C51.72 449.56 53.46 452.25 55.95 454.65L48.43 458.99C52.12 462.15 56.88 464.87 62.42 466.97L69.94 462.63C74.07 464.02 78.69 465 83.61 465.45L84.37 471.53C86.2 471.65 88.07 471.71 89.95 471.71 94.29 471.71 98.51 471.39 102.53 470.79L101.77 464.7C105.1 464.1 108.23 463.26 111.12 462.21L118.59 466.52C123.28 464.63 127.39 462.29 130.7 459.61L123.23 455.29C125.1 453.62 126.61 451.8 127.67 449.86M82.42 455.89C82.21 455.85 82.01 455.81 81.8 455.77 75.35 454.41 70.22 451.48 67.81 447.79 67.72 447.65 67.64 447.52 67.55 447.38 66.75 446.02 66.31 444.56 66.31 443.04 66.31 441.08 67.04 439.21 68.35 437.53L68.87 436.9C71.15 434.33 74.82 432.23 79.3 430.93L80.46 430.62C83.36 429.89 86.56 429.49 89.93 429.49 92.56 429.49 95.09 429.74 97.46 430.19 97.67 430.23 97.87 430.27 98.08 430.31 104.53 431.67 109.66 434.6 112.07 438.29 112.16 438.43 112.24 438.56 112.32 438.7 113.12 440.06 113.56 441.52 113.56 443.04 113.56 445 112.83 446.87 111.52 448.55 111.35 448.76 111.18 448.97 111 449.18 108.72 451.75 105.05 453.85 100.57 455.15L99.41 455.46C96.51 456.19 93.31 456.6 89.94 456.6 87.31 456.6 84.78 456.35 82.41 455.9" stroke-width="0" fill="none" clip-rule="evenodd"/></clipPath><clipPath id="clippath-183"><rect x="39" y="414.28" width="101" height="58" stroke-width="0" fill="none"/></clipPath><clipPath id="clippath-184"><path d="M117.74 449.66 125.11 449.97C125.85 448.36 126.24 446.66 126.24 444.91 126.24 444.16 126.17 443.41 126.02 442.68L118.65 442.37C118.09 440.38 116.88 438.51 115.15 436.84L120.38 433.82C117.81 431.62 114.5 429.73 110.66 428.27L105.43 431.29C102.56 430.32 99.35 429.64 95.93 429.33L95.4 425.1C94.13 425.02 92.83 424.98 91.52 424.98 88.5 424.98 85.57 425.2 82.78 425.62L83.31 429.85C81 430.26 78.82 430.85 76.81 431.58L71.61 428.58C68.35 429.89 65.5 431.52 63.19 433.38L68.39 436.38C67.09 437.54 66.04 438.81 65.3 440.15L57.93 439.84C57.19 441.45 56.8 443.15 56.8 444.9 56.8 445.65 56.87 446.4 57.02 447.13L64.39 447.44C64.95 449.43 66.16 451.3 67.89 452.97L62.66 455.99C65.23 458.19 68.54 460.08 72.38 461.54L77.61 458.52C80.48 459.49 83.69 460.17 87.11 460.48L87.64 464.71C88.91 464.79 90.21 464.83 91.52 464.83 94.54 464.83 97.47 464.61 100.26 464.19L99.73 459.96C102.04 459.54 104.22 458.96 106.23 458.23L111.43 461.23C114.69 459.92 117.54 458.29 119.85 456.43L114.65 453.43C115.95 452.27 117 451 117.74 449.66M86.29 453.85C86.15 453.82 86 453.79 85.86 453.76 81.38 452.81 77.81 450.78 76.14 448.21 76.08 448.12 76.02 448.02 75.96 447.93 75.4 446.98 75.1 445.97 75.1 444.91 75.1 443.55 75.61 442.25 76.51 441.08L76.87 440.64C78.45 438.85 81 437.4 84.12 436.49L84.92 436.27C86.94 435.76 89.16 435.48 91.51 435.48 93.34 435.48 95.1 435.65 96.74 435.97 96.88 436 97.03 436.03 97.17 436.06 101.65 437.01 105.22 439.04 106.89 441.61 106.95 441.7 107.01 441.8 107.07 441.89 107.63 442.84 107.93 443.85 107.93 444.91 107.93 446.27 107.42 447.57 106.52 448.74 106.4 448.89 106.28 449.03 106.16 449.18 104.58 450.97 102.03 452.42 98.91 453.33L98.11 453.55C96.09 454.06 93.87 454.34 91.52 454.34 89.69 454.34 87.93 454.17 86.29 453.85" stroke-width="0" fill="none" clip-rule="evenodd"/></clipPath><clipPath id="clippath-185"><rect x="-300" y="-180.72" width="1200" height="900" stroke-width="0" fill="none"/></clipPath><clipPath id="clippath-186"><path d="M56.8 444.91 56.8 437.43 63.19 433.23 63.19 425.91 82.78 423.91 82.78 418.14 104.1 427.43 120.38 426.35 120.38 433.83 112.56 434.18 126.24 437.43 126.24 444.91 119.85 448.96 119.85 456.44 100.26 456.72 100.26 464.2 77.68 453.19 62.66 456 62.66 448.52 75.7 446.42 96.54 449.69 111.81 440.03 97.94 432.55 71.84 435.9 70.83 444.91 56.8 444.91Z" stroke-width="0" fill="none" clip-rule="evenodd"/></clipPath><clipPath id="clippath-187"><rect x="-300" y="-180.72" width="1200" height="900" stroke-width="0" fill="none"/></clipPath><clipPath id="clippath-188"><path d="M117.74 442.18 125.11 442.49C125.85 440.88 126.24 439.18 126.24 437.43 126.24 436.68 126.17 435.93 126.02 435.2L118.65 434.89C118.09 432.9 116.88 431.03 115.15 429.36L120.38 426.34C117.81 424.14 114.5 422.25 110.66 420.79L105.43 423.81C102.56 422.84 99.35 422.16 95.93 421.85L95.4 417.62C94.13 417.54 92.83 417.5 91.52 417.5 88.5 417.5 85.57 417.72 82.78 418.14L83.31 422.37C81 422.78 78.82 423.37 76.81 424.1L71.61 421.1C68.35 422.41 65.5 424.04 63.19 425.9L68.39 428.9C67.09 430.06 66.04 431.33 65.3 432.68L57.93 432.37C57.19 433.98 56.8 435.68 56.8 437.43 56.8 438.18 56.87 438.93 57.02 439.66L64.39 439.97C64.95 441.96 66.16 443.83 67.89 445.5L62.66 448.52C65.23 450.72 68.54 452.61 72.38 454.07L77.61 451.05C80.48 452.02 83.69 452.7 87.11 453.01L87.64 457.24C88.91 457.32 90.21 457.36 91.52 457.36 94.54 457.36 97.47 457.14 100.26 456.72L99.73 452.49C102.04 452.07 104.22 451.49 106.23 450.76L111.43 453.76C114.69 452.45 117.54 450.82 119.85 448.96L114.65 445.96C115.95 444.8 117 443.53 117.74 442.19M86.29 446.37C86.15 446.34 86 446.31 85.86 446.28 81.38 445.33 77.81 443.3 76.14 440.73 76.08 440.64 76.02 440.54 75.96 440.45 75.4 439.5 75.1 438.49 75.1 437.43 75.1 436.07 75.61 434.77 76.51 433.6L76.87 433.16C78.45 431.37 81 429.92 84.12 429.01L84.92 428.79C86.94 428.28 89.16 428 91.51 428 93.34 428 95.1 428.17 96.74 428.49 96.88 428.52 97.03 428.55 97.17 428.58 101.65 429.53 105.22 431.56 106.89 434.13 106.95 434.22 107.01 434.32 107.07 434.41 107.63 435.36 107.93 436.37 107.93 437.43 107.93 438.79 107.42 440.09 106.52 441.26 106.4 441.41 106.28 441.55 106.16 441.7 104.58 443.49 102.03 444.94 98.91 445.85L98.11 446.07C96.09 446.58 93.87 446.86 91.52 446.86 89.69 446.86 87.93 446.69 86.29 446.37" stroke-width="0" fill="none" clip-rule="evenodd"/></clipPath><clipPath id="clippath-189"><rect x="-300" y="-180.72" width="1200" height="900" stroke-width="0" fill="none"/></clipPath><clipPath id="clippath-190"><path d="M121.13 439.65 127.63 439.92C128.28 438.5 128.62 437 128.62 435.46 128.62 434.79 128.55 434.14 128.43 433.49L121.93 433.22C121.44 431.46 120.37 429.82 118.84 428.35L123.45 425.69C121.18 423.75 118.27 422.09 114.87 420.8L110.26 423.46C107.72 422.6 104.89 422.01 101.88 421.73L101.42 418C100.3 417.93 99.15 417.89 98 417.89 95.34 417.89 92.75 418.09 90.29 418.45L90.75 422.18C88.71 422.55 86.79 423.06 85.02 423.71L80.44 421.06C77.56 422.22 75.05 423.65 73.01 425.3L77.59 427.95C76.44 428.98 75.52 430.09 74.87 431.28L68.37 431.01C67.72 432.43 67.38 433.93 67.38 435.47 67.38 436.14 67.44 436.79 67.57 437.44L74.07 437.71C74.56 439.47 75.63 441.11 77.16 442.58L72.55 445.24C74.82 447.18 77.73 448.84 81.13 450.13L85.74 447.47C88.28 448.32 91.11 448.92 94.12 449.2L94.58 452.93C95.7 453 96.85 453.04 98 453.04 100.66 453.04 103.25 452.84 105.71 452.48L105.25 448.75C107.29 448.38 109.21 447.87 110.98 447.22L115.56 449.87C118.44 448.71 120.95 447.28 122.99 445.63L118.41 442.98C119.56 441.95 120.48 440.84 121.13 439.65M93.38 443.34C93.25 443.32 93.13 443.29 93 443.26 89.04 442.43 85.9 440.63 84.42 438.37 84.37 438.29 84.31 438.2 84.26 438.12 83.77 437.28 83.5 436.39 83.5 435.46 83.5 434.26 83.95 433.11 84.75 432.08L85.07 431.69C86.47 430.11 88.72 428.83 91.47 428.03L92.18 427.84C93.96 427.39 95.92 427.14 97.99 427.14 99.6 427.14 101.16 427.29 102.61 427.57 102.74 427.59 102.86 427.62 102.99 427.65 106.95 428.48 110.09 430.28 111.57 432.54 111.62 432.62 111.68 432.71 111.73 432.79 112.22 433.63 112.49 434.52 112.49 435.45 112.49 436.65 112.04 437.8 111.24 438.83 111.14 438.96 111.03 439.09 110.92 439.22 109.52 440.8 107.27 442.08 104.52 442.88L103.81 443.07C102.03 443.52 100.07 443.77 98 443.77 96.39 443.77 94.83 443.62 93.38 443.34" stroke-width="0" fill="none" clip-rule="evenodd"/></clipPath><clipPath id="clippath-191"><rect x="-300" y="-180.72" width="1200" height="900" stroke-width="0" fill="none"/></clipPath><clipPath id="clippath-192"><path d="M67.37 435.46 67.37 428.86 73 425.15 73 418.69 90.28 416.93 90.28 411.84 109.09 420.03 123.46 419.08 123.46 425.68 116.56 425.99 128.63 428.86 128.63 435.46 122.99 439.03 122.99 445.62 105.71 445.88 105.71 452.47 85.79 442.76 72.54 445.23 72.54 438.64 84.04 436.78 102.42 439.67 115.89 431.15 103.66 424.55 80.64 427.5 79.74 435.46 67.37 435.46Z" stroke-width="0" fill="none" clip-rule="evenodd"/></clipPath><clipPath id="clippath-193"><rect x="-300" y="-180.72" width="1200" height="900" stroke-width="0" fill="none"/></clipPath><clipPath id="clippath-194"><path d="M121.13 433.05 127.63 433.32C128.28 431.9 128.62 430.4 128.62 428.86 128.62 428.19 128.55 427.54 128.43 426.89L121.93 426.62C121.44 424.86 120.37 423.22 118.84 421.75L123.45 419.09C121.18 417.15 118.27 415.49 114.87 414.2L110.26 416.86C107.72 416 104.89 415.41 101.88 415.13L101.42 411.4C100.3 411.33 99.15 411.29 98 411.29 95.34 411.29 92.75 411.49 90.29 411.85L90.75 415.58C88.71 415.95 86.79 416.46 85.02 417.11L80.44 414.46C77.56 415.62 75.05 417.05 73.01 418.7L77.59 421.35C76.44 422.38 75.52 423.49 74.87 424.68L68.37 424.41C67.72 425.83 67.38 427.33 67.38 428.87 67.38 429.54 67.44 430.19 67.57 430.84L74.07 431.11C74.56 432.87 75.63 434.51 77.16 435.98L72.55 438.64C74.82 440.58 77.73 442.24 81.13 443.53L85.74 440.87C88.28 441.73 91.11 442.32 94.12 442.6L94.58 446.33C95.7 446.4 96.85 446.44 98 446.44 100.66 446.44 103.25 446.24 105.71 445.88L105.25 442.15C107.29 441.78 109.21 441.27 110.98 440.62L115.56 443.27C118.44 442.11 120.95 440.68 122.99 439.03L118.41 436.38C119.56 435.35 120.48 434.24 121.13 433.05M93.38 436.74C93.25 436.72 93.13 436.69 93 436.66 89.04 435.83 85.9 434.03 84.42 431.77 84.37 431.69 84.31 431.6 84.26 431.52 83.77 430.68 83.5 429.79 83.5 428.86 83.5 427.66 83.95 426.51 84.75 425.48L85.07 425.09C86.47 423.51 88.72 422.23 91.47 421.43L92.18 421.24C93.96 420.79 95.92 420.54 97.99 420.54 99.6 420.54 101.16 420.69 102.61 420.97 102.74 420.99 102.86 421.02 102.99 421.05 106.95 421.88 110.09 423.68 111.57 425.94 111.62 426.02 111.68 426.11 111.73 426.19 112.22 427.03 112.49 427.92 112.49 428.85 112.49 430.05 112.04 431.2 111.24 432.23 111.14 432.36 111.03 432.49 110.92 432.62 109.52 434.2 107.27 435.48 104.52 436.28L103.81 436.47C102.03 436.92 100.07 437.17 98 437.17 96.39 437.17 94.83 437.02 93.38 436.74" stroke-width="0" fill="none" clip-rule="evenodd"/></clipPath><clipPath id="clippath-195"><rect x="-300" y="-180.72" width="1200" height="900" stroke-width="0" fill="none"/></clipPath><clipPath id="clippath-196"><path d="M125.08 503.95C125.51 502.73 127.69 500.65 129.63 500.85 129.65 500.38 129.47 499.94 129.47 499.94 128.28 497.28 127.6 492.77 127.6 492.77L118.77 493.22C118.77 493.22 120.46 497.43 120.86 499.61 120.86 499.61 119.21 502.42 125.09 503.95" stroke-width="0" fill="none" clip-rule="evenodd"/></clipPath><clipPath id="clippath-197"><rect x="-300" y="-180.72" width="1200" height="900" stroke-width="0" fill="none"/></clipPath><clipPath id="clippath-198"><path d="M140.4 512.29C138.95 511.02 131.94 503.25 130.26 501.28 129.98 500.95 129.71 500.48 129.47 499.94 129.47 499.94 129.65 500.38 129.63 500.85 127.69 500.65 125.52 502.73 125.08 503.95 119.2 502.41 120.85 499.61 120.85 499.61 119.63 500.48 119.72 503.43 120.02 506.52 120.02 506.52 121.21 509.2 124.48 511.63 125.77 512.67 127.71 515.51 129.02 516.93 130.32 518.35 134.23 522.81 140.58 521.88 140.9 520.87 142.3 518.55 144.12 518.72 143.92 514.68 141.85 513.56 140.41 512.29" stroke-width="0" fill="none" clip-rule="evenodd"/></clipPath><clipPath id="clippath-199"><rect x="-300" y="-180.72" width="1200" height="900" stroke-width="0" fill="none"/></clipPath><clipPath id="clippath-200"><path d="M140.58 521.87C134.24 522.8 130.33 518.34 129.02 516.92 127.72 515.5 125.78 512.66 124.48 511.62 121.22 509.19 120.02 506.51 120.02 506.51 118.33 509.59 121.15 511.38 123.06 512.42 124.97 513.46 126.54 515.37 127.59 516.85 128.65 518.33 133.48 523.32 138.91 523.15 144.34 522.98 144.3 519.67 144.1 518.72 142.28 518.55 140.88 520.86 140.56 521.88" stroke-width="0" fill="none" clip-rule="evenodd"/></clipPath><clipPath id="clippath-201"><rect x="-300" y="-180.72" width="1200" height="900" stroke-width="0" fill="none"/></clipPath><clipPath id="clippath-202"><path d="M158.13 471.63C158.17 470.89 158.6 469.73 159.76 468.85L159.76 468.85C158.89 468.2 158.25 467.58 157.93 467.05 157.12 465.72 155.58 459.4 155.58 459.4L148.17 463.51 150.28 469.01C150.28 469.01 149.96 472.27 158.13 471.62" stroke-width="0" fill="none" clip-rule="evenodd"/></clipPath><clipPath id="clippath-203"><rect x="-300" y="-180.72" width="1200" height="900" stroke-width="0" fill="none"/></clipPath><clipPath id="clippath-204"><path d="M165.02 471.8C162.92 470.89 161.07 469.84 159.75 468.85L159.75 468.85C158.6 469.72 158.17 470.89 158.12 471.63 149.95 472.28 150.27 469.02 150.27 469.02L150.24 469.05C150.06 469.22 149.14 470.39 149.92 476.38 149.92 476.38 150.59 479.28 156.38 479.68 159.33 479.91 162.81 480.95 164.89 481.88 166.98 482.81 171.81 484.75 176.53 482.52 176.7 481.56 177.78 480.3 179.27 480.19L179.27 480.19C178.96 478.53 176.69 475.57 165 471.8" stroke-width="0" fill="none" clip-rule="evenodd"/></clipPath><clipPath id="clippath-205"><rect x="-300" y="-180.72" width="1200" height="900" stroke-width="0" fill="none"/></clipPath><clipPath id="clippath-206"><rect x="149.55" y="476.38" width="29.78" height="8.3" stroke-width="0" fill="none"/></clipPath><clipPath id="clippath-207"><rect x="-300" y="-180.72" width="1200" height="900" stroke-width="0" fill="none"/></clipPath><clipPath id="clippath-208"><rect x="148" y="476.28" width="32" height="12" stroke-width="0" fill="none"/></clipPath><clipPath id="clippath-209"><path d="M176.55 482.52C171.83 484.75 166.99 482.81 164.91 481.88 162.82 480.95 159.35 479.91 156.4 479.68 150.61 479.27 149.94 476.38 149.94 476.38 149.59 476.58 148.69 479.13 151.91 480.67 155.12 482.2 159.44 481.28 161.58 482.06 163.72 482.84 175.11 487.91 179.22 481.42 179.28 481.17 179.4 480.76 179.3 480.19 177.81 480.3 176.73 481.56 176.56 482.52" stroke-width="0" fill="none" clip-rule="evenodd"/></clipPath><clipPath id="clippath-210"><rect x="149" y="476.28" width="31" height="9" stroke-width="0" fill="none"/></clipPath><clipPath id="clippath-211"><path d="M103.31 433.05C103.31 433.05 106.52 430.18 107.83 430.27 109.13 430.36 132.88 436.51 134.24 437.22 135.6 437.93 139.54 446.53 139.54 446.53L139.97 432.27 101.13 414.98 90.01 424.88 103.3 433.05Z" stroke-width="0" fill="none" clip-rule="evenodd"/></clipPath><clipPath id="clippath-212"><rect x="-300" y="-180.72" width="1200" height="900" stroke-width="0" fill="none"/></clipPath><clipPath id="clippath-213"><path d="M75.76 414.54C75.76 414.54 68.72 427.96 85.4 438.91 89.57 442.56 106.25 456.85 106.25 456.85L117.81 495.6C117.81 495.6 123.8 497.51 129.28 492.47 127.33 484.61 120.33 453.11 119.38 450.33 118.42 447.55 99.4 424.87 99.4 424.87 99.4 424.87 104.31 421.26 107.96 422.92 111.61 424.57 132.85 434.47 134.54 436.17 136.23 437.87 146.92 464.06 146.92 464.06 146.92 464.06 152.48 465.89 156.91 460.41 154.56 453.5 147.81 429.39 146.31 428.09 144.81 426.79 110.68 405.1 110.68 405.1L75.76 414.54Z" stroke-width="0" fill="none" clip-rule="evenodd"/></clipPath><clipPath id="clippath-214"><rect x="-300" y="-180.72" width="1200" height="900" stroke-width="0" fill="none"/></clipPath><clipPath id="clippath-215"><path d="M112 385.78C115.96 384.58 117 381.95 117 381.95 116.44 378.14 115.93 374.28 115.77 372.3 115.41 367.78 115.18 352.53 105.65 353.93 104.02 354.17 100.58 358 101.08 363.36 101.36 366.43 103.53 376.6 105.73 385.29 105.73 385.29 108.04 386.98 112.01 385.79" stroke-width="0" fill="none" clip-rule="evenodd"/></clipPath><clipPath id="clippath-216"><rect x="-300" y="-180.72" width="1200" height="900" stroke-width="0" fill="none"/></clipPath><clipPath id="clippath-217"><path d="M165.3 415.92C165.3 415.92 166.14 415.76 165.78 414.63 165.42 413.5 161.46 409.77 160.45 409.56 159.43 409.35 157.6 409.18 157.6 409.18 157.6 409.18 157.12 407.17 155.78 407.17 154.44 407.17 147.93 407.3 147.46 407.11 146.99 406.92 145.46 406.86 144.24 406.41 143.02 405.96 119.18 393.88 118.75 392.41 118.51 391.59 117.71 386.79 117 381.94 117 381.94 115.97 384.58 112 385.77 108.04 386.97 105.72 385.28 105.72 385.27 107.36 391.74 109.01 397.39 109.92 398.69 112.04 401.73 128.23 409.34 141.41 411.13 144.97 414 146.72 414.64 149.86 415.24 151.54 415.74 155.19 417.87 156.25 418.57 157.26 419.12 158.05 419.08 158.4 418.2 158.75 417.32 152.64 414.8 152.88 414.39 153.12 413.98 154.17 414.39 154.7 414.62 155.23 414.85 158.73 416.49 161.32 417.94 162.02 418.4 163.26 418.33 163.79 417.62 164.1 417.91 165.42 418.11 165.94 417.16 166.13 416.45 165.3 415.92 165.3 415.92" stroke-width="0" fill="none" clip-rule="evenodd"/></clipPath><clipPath id="clippath-218"><rect x="-300" y="-180.72" width="1200" height="900" stroke-width="0" fill="none"/></clipPath><clipPath id="clippath-219"><path d="M90.76 353.83C95.19 351.94 107.29 353.83 107.29 353.83 107.29 353.83 112.24 357.71 110.19 369.31 108.14 380.91 107.36 392.58 110.69 405.1 110.47 408.65 101.32 417.99 83.29 416.12 80.77 410.52 71.54 370.34 71.54 370.34 71.54 370.34 76.1 360.08 90.76 353.82" stroke-width="0" fill="none" clip-rule="evenodd"/></clipPath><clipPath id="clippath-220"><rect x="-300" y="-180.72" width="1200" height="900" stroke-width="0" fill="none"/></clipPath><clipPath id="clippath-221"><rect x="81.45" y="323.52" width="26.68" height="23.72" stroke-width="0" fill="none"/></clipPath><clipPath id="clippath-222"><rect x="-300" y="-180.72" width="1200" height="900" stroke-width="0" fill="none"/></clipPath><clipPath id="clippath-223"><rect x="77" y="322.28" width="33" height="25" stroke-width="0" fill="none"/></clipPath><clipPath id="clippath-224"><path d="M84.89 344.17C84.89 344.17 77.45 333.52 84.46 330.44 83.95 327.97 85.3 323.58 93.52 323.53 98.52 323.72 98.33 325.12 100.43 324.37 101.18 323.67 104.59 322.5 106.87 325.4 109.16 328.29 107.73 332.12 107.23 333.39 105.28 336.19 91.04 347.26 91.04 347.26L84.89 344.18Z" stroke-width="0" fill="none" clip-rule="evenodd"/></clipPath><clipPath id="clippath-225"><rect x="81" y="323.28" width="28" height="24" stroke-width="0" fill="none"/></clipPath><clipPath id="clippath-226"><path d="M89.11 347.76C89.11 347.76 90.04 352.27 88.67 355.09 87.11 355.98 87.86 362.58 96.52 360.65 96.52 360.65 101.5 358.7 99.82 354.38 98.14 350.06 89.11 347.76 89.11 347.76" stroke-width="0" fill="none" clip-rule="evenodd"/></clipPath><clipPath id="clippath-227"><rect x="-300" y="-180.72" width="1200" height="900" stroke-width="0" fill="none"/></clipPath><clipPath id="clippath-228"><path d="M107.23 333.38C107.23 333.38 107.48 337.99 106.98 340.17 107.23 342.16 107.91 353.68 104.12 354.8 100.32 355.92 91.79 353.87 89.11 347.76 87.74 347.88 83.76 346.2 85.19 342.34 86.4 340.53 89.55 342.34 90.26 344.77 91.32 344.44 91.66 342.28 91.44 340.94 91.22 339.6 92 335.9 93.21 334.96 92.03 334.46 89.66 332.16 86.05 331.07 88.32 331.51 92.15 333.22 94.49 334.21 96.82 335.21 103.99 335.05 107.22 333.37" stroke-width="0" fill="none" clip-rule="evenodd"/></clipPath><clipPath id="clippath-229"><rect x="-300" y="-180.72" width="1200" height="900" stroke-width="0" fill="none"/></clipPath><clipPath id="clippath-230"><path d="M99.03 436.33 99.03 435.18C99.03 435.18 100.11 435.09 100.11 435.09L127.33 419.37C128.46 418.72 130.44 418.8 131.75 419.55L134.51 421.14 150.68 430.48 151.26 430.81 153.05 430.66 153.05 431.84 151 433.02 123.46 448.92 121.41 450.1 119.04 448.73 102.87 439.39 100.11 437.8C99.37 437.37 99 436.82 99.03 436.3L99.03 436.3Z" stroke-width="0" fill="none" clip-rule="evenodd"/></clipPath><clipPath id="clippath-231"><rect x="-300" y="-180.72" width="1200" height="900" stroke-width="0" fill="none"/></clipPath><clipPath id="clippath-232"><path d="M99.79 434.09 127.33 418.19C128.46 417.54 130.44 417.62 131.75 418.37L134.51 419.96 150.68 429.3 153.05 430.67 151 431.85 123.46 447.75 121.41 448.93 119.04 447.56 102.87 438.22 100.11 436.63C98.8 435.88 98.66 434.73 99.79 434.08" stroke-width="0" fill="none" clip-rule="evenodd"/></clipPath><clipPath id="clippath-233"><rect x="-300" y="-180.72" width="1200" height="900" stroke-width="0" fill="none"/></clipPath><clipPath id="clippath-234"><path d="M112.3 438.76 127.4 430.04C128.02 429.68 129.11 429.73 129.82 430.14L131.33 431.01 140.2 436.13 141.5 436.88 140.38 437.53 125.28 446.25 124.16 446.9 122.86 446.15 113.99 441.03 112.48 440.16C111.76 439.75 111.69 439.12 112.31 438.76" stroke-width="0" fill="none" clip-rule="evenodd"/></clipPath><clipPath id="clippath-235"><rect x="-300" y="-180.72" width="1200" height="900" stroke-width="0" fill="none"/></clipPath><clipPath id="clippath-236"><path d="M119.73 433.31 128.2 428.42C128.87 428.03 128.78 427.35 128.01 426.91L122.54 423.75C121.77 423.3 120.59 423.25 119.92 423.64L111.45 428.53C110.78 428.92 110.87 429.6 111.64 430.04L117.11 433.2C117.88 433.65 119.06 433.7 119.73 433.31" stroke-width="0" fill="none" clip-rule="evenodd"/></clipPath><clipPath id="clippath-237"><rect x="-300" y="-180.72" width="1200" height="900" stroke-width="0" fill="none"/></clipPath><clipPath id="clippath-238"><path d="M77.37 402.58C81.54 401.68 82.82 399.06 82.82 399.06 82.56 395.09 82.35 391.1 82.35 389.04 82.35 384.37 83.38 368.68 73.48 369.33 71.79 369.44 67.94 373.1 68 378.64 68.04 381.82 69.42 392.44 70.96 401.55 70.96 401.55 73.2 403.48 77.37 402.58" stroke-width="0" fill="none" clip-rule="evenodd"/></clipPath><clipPath id="clippath-239"><rect x="-300" y="-180.72" width="1200" height="900" stroke-width="0" fill="none"/></clipPath><clipPath id="clippath-240"><path d="M129.63 437.96C129.63 437.96 130.5 437.87 130.23 436.68 129.96 435.49 126.2 431.33 125.17 431.03 124.14 430.73 122.27 430.4 122.27 430.4 122.27 430.4 121.94 428.3 120.57 428.18 119.19 428.06 112.49 427.67 112.02 427.43 111.55 427.2 109.99 427.01 108.77 426.45 107.56 425.89 84.07 411.51 83.74 409.97 83.56 409.11 83.14 404.11 82.81 399.07 82.81 399.07 81.53 401.69 77.36 402.59 73.19 403.49 70.95 401.56 70.95 401.56 72.1 408.34 73.33 414.29 74.15 415.69 76.08 418.99 92.08 428.14 105.47 431.07 108.89 434.31 110.64 435.12 113.81 435.99 115.49 436.64 119.07 439.13 120.1 439.94 121.1 440.59 121.91 440.61 122.34 439.74 122.78 438.87 116.71 435.77 116.99 435.37 117.27 434.97 118.31 435.48 118.84 435.76 119.37 436.04 122.82 438.02 125.36 439.71 126.04 440.24 127.32 440.27 127.93 439.59 128.23 439.92 129.56 440.23 130.17 439.29 130.42 438.57 129.62 437.96 129.62 437.96" stroke-width="0" fill="none" clip-rule="evenodd"/></clipPath><clipPath id="clippath-241"><rect x="-300" y="-180.72" width="1200" height="900" stroke-width="0" fill="none"/></clipPath><clipPath id="clippath-242"><path d="M120.91 448.68 121.09 445.84 122.3 426.47 122.51 423.16C122.61 421.59 123.6 419.79 124.74 419.14L152.28 403.24C152.69 403.01 153.05 402.95 153.35 403.05L153.35 403.05C153.35 403.05 153.36 403.05 153.36 403.05 153.43 403.08 153.5 403.11 153.57 403.15L153.93 403.33 153.85 403.44C154.07 403.77 154.18 404.26 154.14 404.88L153.93 408.19 152.72 427.56 152.54 430.4 150.49 431.58 122.95 447.48 122.05 448 121.39 448.92 120.9 448.66Z" stroke-width="0" fill="none" clip-rule="evenodd"/></clipPath><clipPath id="clippath-243"><rect x="-300" y="-180.72" width="1200" height="900" stroke-width="0" fill="none"/></clipPath><clipPath id="clippath-244"><path d="M125.22 419.4 152.76 403.5C153.89 402.85 154.73 403.59 154.63 405.15L154.42 408.46 153.21 427.83 153.03 430.67 150.98 431.85 123.44 447.75 121.39 448.93 121.57 446.09 122.78 426.72 122.99 423.41C123.09 421.84 124.09 420.05 125.22 419.39" stroke-width="0" fill="none" clip-rule="evenodd"/></clipPath><clipPath id="clippath-245"><rect x="-300" y="-180.72" width="1200" height="900" stroke-width="0" fill="none"/></clipPath><clipPath id="clippath-246"><path d="M136.8 426.13C137.13 427.46 138.67 427.91 140.26 427.15 141.84 426.38 142.86 424.69 142.53 423.36 142.2 422.03 140.66 421.58 139.07 422.34 137.49 423.11 136.47 424.81 136.8 426.13" stroke-width="0" fill="none" clip-rule="evenodd"/></clipPath><clipPath id="clippath-247"><rect x="-300" y="-180.72" width="1200" height="900" stroke-width="0" fill="none"/></clipPath></defs><g id="Layer_1"><g clip-path="url(#clippath)"><g clip-path="url(#clippath-1)"><rect x="-5" y="63.81" width="140.59" height="254.67" stroke-width="0" fill="#2A2B9B"/></g></g><g clip-path="url(#clippath-2)"><g clip-path="url(#clippath-3)"><rect x="-5" y="97.78" width="133.33" height="220.71" stroke-width="0" fill="#FFFFFF"/></g></g><g clip-path="url(#clippath-4)"><g clip-path="url(#clippath-5)"><rect x="-5" y="68.05" width="133.33" height="110.93" stroke-width="0" fill="#4748FF"/></g></g><g clip-path="url(#clippath-6)"><g clip-path="url(#clippath-7)"><rect x="3.09" y="84.95" width="16.02" height="18.75" stroke-width="0" fill="#FFFFFF"/></g></g><g clip-path="url(#clippath-8)"><g clip-path="url(#clippath-9)"><rect x="11.6" y="89.86" width="16.02" height="18.75" stroke-width="0" fill="#FFFFFF"/></g></g><g clip-path="url(#clippath-10)"><g clip-path="url(#clippath-11)"><rect x="20.11" y="94.77" width="16.02" height="18.75" stroke-width="0" fill="#FFFFFF"/></g></g><g clip-path="url(#clippath-12)"><g clip-path="url(#clippath-13)"><rect x="2.68" y="197.86" width="117.97" height="116.19" stroke-width="0" fill="#B4EE73"/></g></g><g clip-path="url(#clippath-14)"><g clip-path="url(#clippath-15)"><rect x="38.63" y="246.67" width="46.07" height="46.63" stroke-width="0" fill="#FFFFFF"/></g></g><g clip-path="url(#clippath-16)"><g clip-path="url(#clippath-17)"><rect x="8.63" y="124.13" width="106.07" height="98.81" stroke-width="0" fill="#00DFFF"/></g></g><g clip-path="url(#clippath-18)"><g clip-path="url(#clippath-19)"><rect x="435.47" y="242.38" width="12.51" height="15.59" stroke-width="0" fill="#4B4E85"/></g></g><g clip-path="url(#clippath-20)"><g clip-path="url(#clippath-21)"><g><g clip-path="url(#clippath-22)"><g clip-path="url(#clippath-23)"><g clip-path="url(#clippath-24)"><rect x="386.23" y="187.25" width="218.6" height="368.38" stroke-width="0" fill="#121633"/></g></g></g></g></g></g><g clip-path="url(#clippath-25)"><g clip-path="url(#clippath-26)"><rect x="386.23" y="190.36" width="193.67" height="301.01" stroke-width="0" fill="#FFFFFF"/></g></g><g clip-path="url(#clippath-27)"><g clip-path="url(#clippath-28)"><rect x="550.35" y="507.43" width="49.09" height="49.69" stroke-width="0" fill="#7579C0"/></g></g><g clip-path="url(#clippath-29)"><g clip-path="url(#clippath-30)"><rect x="550.35" y="294.06" width="49.09" height="49.69" stroke-width="0" fill="#FFFFFF"/></g></g><g clip-path="url(#clippath-31)"><g clip-path="url(#clippath-32)"><rect x="550.35" y="481.37" width="29.55" height="36.06" stroke-width="0" fill="#7579C0"/></g></g><g clip-path="url(#clippath-33)"><g clip-path="url(#clippath-34)"><rect x="569.9" y="492.66" width="29.55" height="47.34" stroke-width="0" fill="#7579C0"/></g></g><g clip-path="url(#clippath-35)"><g clip-path="url(#clippath-36)"><rect x="550.35" y="311.18" width="49.09" height="202.76" stroke-width="0" fill="#7579C0"/></g></g><g clip-path="url(#clippath-37)"><g clip-path="url(#clippath-38)"><rect x="550.35" y="490.31" width="49.09" height="49.69" stroke-width="0" fill="#7579C0"/></g></g><g clip-path="url(#clippath-39)"><g clip-path="url(#clippath-40)"><rect x="550.35" y="311.18" width="49.09" height="49.69" stroke-width="0" fill="#FFFFFF"/></g></g><g clip-path="url(#clippath-41)"><g clip-path="url(#clippath-42)"><rect x="428.74" y="256.13" width="95.82" height="129.28" stroke-width="0" fill="#9C73FF"/></g></g><g clip-path="url(#clippath-43)"><g clip-path="url(#clippath-44)"><rect x="452.77" y="288.33" width="47.76" height="64.88" stroke-width="0" fill="#FFFFFF"/></g></g><g clip-path="url(#clippath-45)"><g clip-path="url(#clippath-46)"><rect x="411.69" y="367.2" width="28.12" height="28.03" stroke-width="0" fill="#00FFC3"/></g></g><g clip-path="url(#clippath-47)"><g clip-path="url(#clippath-48)"><rect x="437.14" y="381.9" width="28.12" height="28.03" stroke-width="0" fill="#00DFFF"/></g></g><g clip-path="url(#clippath-49)"><g clip-path="url(#clippath-50)"><rect x="462.59" y="396.59" width="28.12" height="28.03" stroke-width="0" fill="#007BFF"/></g></g><g clip-path="url(#clippath-51)"><g clip-path="url(#clippath-52)"><rect x="488.04" y="411.28" width="28.12" height="28.03" stroke-width="0" fill="#7F27F1"/></g></g><g clip-path="url(#clippath-53)"><g clip-path="url(#clippath-54)"><rect x="513.48" y="425.97" width="28.12" height="28.03" stroke-width="0" fill="#EE70A7"/></g></g><g clip-path="url(#clippath-55)"><g clip-path="url(#clippath-56)"><rect x="190.35" y="271.45" width="138.22" height="84.03" stroke-width="0" fill="#121633"/></g></g><g clip-path="url(#clippath-57)"><g clip-path="url(#clippath-58)"><rect x="190.35" y="267" width="138.22" height="84.03" stroke-width="0" fill="#7579C0"/></g></g><g clip-path="url(#clippath-59)"><g clip-path="url(#clippath-60)"><rect x="150.78" y="-5" width="266.88" height="372.21" stroke-width="0" fill="#3D3F6D"/></g></g><g clip-path="url(#clippath-61)"><g clip-path="url(#clippath-62)"><rect x="143.94" y="-4" width="268.84" height="376.92" stroke-width="0" fill="#3D3F6D"/></g></g><g clip-path="url(#clippath-63)"><g clip-path="url(#clippath-64)"><rect x="139.34" y="180.36" width="266.88" height="193.44" stroke-width="0" fill="#FFFFFF"/></g></g><g clip-path="url(#clippath-65)"><g clip-path="url(#clippath-66)"><rect x="209.1" y="82" width="107.81" height="158.89" stroke-width="0" fill="#4B4E85"/></g></g><g clip-path="url(#clippath-67)"><g clip-path="url(#clippath-68)"><rect x="139.34" y="1.58" width="105.44" height="197.67" stroke-width="0" fill="#4B4E85"/></g></g><g clip-path="url(#clippath-69)"><g clip-path="url(#clippath-70)"><rect x="254.38" y="108.15" width="151.84" height="230.52" stroke-width="0" fill="#4B4E85"/></g></g><g clip-path="url(#clippath-71)"><g clip-path="url(#clippath-72)"><rect x="154.74" y="50.62" width="144.4" height="180.01" stroke-width="0" fill="#7579C0"/></g></g><g clip-path="url(#clippath-73)"><g clip-path="url(#clippath-74)"><rect x="226.87" y="92.26" width="117.55" height="164.51" stroke-width="0" fill="#7579C0"/></g></g><g clip-path="url(#clippath-75)"><g clip-path="url(#clippath-76)"><rect x="217.2" y="113.65" width="50.02" height="80.61" stroke-width="0" fill="#FFFFFF"/></g></g><g clip-path="url(#clippath-77)"><g clip-path="url(#clippath-78)"><rect x="258.87" y="133.55" width="45.31" height="73.44" stroke-width="0" fill="#FFFFFF"/></g></g><g clip-path="url(#clippath-79)"><g clip-path="url(#clippath-80)"><rect x="296.46" y="155.26" width="31.89" height="74.29" stroke-width="0" fill="#FFFFFF"/></g></g><g clip-path="url(#clippath-81)"><g clip-path="url(#clippath-82)"><rect x="324.25" y="194.27" width="22.65" height="23" stroke-width="0" fill="#FFFFFF"/></g></g><g clip-path="url(#clippath-83)"><g clip-path="url(#clippath-84)"><rect x="343.97" y="205.66" width="22.65" height="23" stroke-width="0" fill="#FFFFFF"/></g></g><g clip-path="url(#clippath-85)"><g clip-path="url(#clippath-86)"><rect x="178.94" y="110.38" width="22.65" height="23" stroke-width="0" fill="#FFFFFF"/></g></g><g clip-path="url(#clippath-87)"><g clip-path="url(#clippath-88)"><rect x="198.66" y="121.76" width="22.65" height="23" stroke-width="0" fill="#FFFFFF"/></g></g><g clip-path="url(#clippath-89)"><g clip-path="url(#clippath-90)"><rect x="87.65" y="134.68" width="103.42" height="260.34" stroke-width="0" fill="#B1BAC9"/></g></g><g clip-path="url(#clippath-91)"><g clip-path="url(#clippath-92)"><rect x="84.85" y="139.35" width="98.16" height="83.84" stroke-width="0" fill="#EDF0F9"/></g></g><g clip-path="url(#clippath-93)"><g clip-path="url(#clippath-94)"><rect x="84.85" y="311.66" width="98.16" height="83.84" stroke-width="0" fill="#EDF0F9"/></g></g><g clip-path="url(#clippath-95)"><g clip-path="url(#clippath-96)"><rect x="116.66" y="166.51" width="34.54" height="25.77" stroke-width="0" fill="#4B4E85"/></g></g><g clip-path="url(#clippath-97)"><g clip-path="url(#clippath-98)"><rect x="84.85" y="162.29" width="98.16" height="210.26" stroke-width="0" fill="#0FECE0"/></g></g><g clip-path="url(#clippath-99)"><g clip-path="url(#clippath-100)"><rect x="94.58" y="191.86" width="20.4" height="20.04" stroke-width="0" fill="#121633"/></g></g><g clip-path="url(#clippath-101)"><g clip-path="url(#clippath-102)"><rect x="109.15" y="200.28" width="20.4" height="20.04" stroke-width="0" fill="#121633"/></g></g><g clip-path="url(#clippath-103)"><g clip-path="url(#clippath-104)"><rect x="123.73" y="208.69" width="20.4" height="20.04" stroke-width="0" fill="#121633"/></g></g><g clip-path="url(#clippath-105)"><g clip-path="url(#clippath-106)"><rect x="138.31" y="217.11" width="20.4" height="20.04" stroke-width="0" fill="#121633"/></g></g><g clip-path="url(#clippath-107)"><g clip-path="url(#clippath-108)"><rect x="152.88" y="225.52" width="20.4" height="20.04" stroke-width="0" fill="#121633"/></g></g><g clip-path="url(#clippath-109)"><g clip-path="url(#clippath-110)"><rect x="94.58" y="203.98" width="20.4" height="20.04" stroke-width="0" fill="#121633"/></g></g><g clip-path="url(#clippath-111)"><g clip-path="url(#clippath-112)"><rect x="109.15" y="212.4" width="20.4" height="20.04" stroke-width="0" fill="#121633"/></g></g><g clip-path="url(#clippath-113)"><g clip-path="url(#clippath-114)"><rect x="123.73" y="220.81" width="20.4" height="20.04" stroke-width="0" fill="#121633"/></g></g><g clip-path="url(#clippath-115)"><g clip-path="url(#clippath-116)"><rect x="138.31" y="229.23" width="20.4" height="20.04" stroke-width="0" fill="#121633"/></g></g><g clip-path="url(#clippath-117)"><g clip-path="url(#clippath-118)"><rect x="152.88" y="237.64" width="20.4" height="20.04" stroke-width="0" fill="#121633"/></g></g><g clip-path="url(#clippath-119)"><g clip-path="url(#clippath-120)"><rect x="94.58" y="216.11" width="20.4" height="20.04" stroke-width="0" fill="#121633"/></g></g><g clip-path="url(#clippath-121)"><g clip-path="url(#clippath-122)"><rect x="109.15" y="224.52" width="20.4" height="20.04" stroke-width="0" fill="#121633"/></g></g><g clip-path="url(#clippath-123)"><g clip-path="url(#clippath-124)"><rect x="123.73" y="232.94" width="20.4" height="20.04" stroke-width="0" fill="#121633"/></g></g><g clip-path="url(#clippath-125)"><g clip-path="url(#clippath-126)"><rect x="138.31" y="241.35" width="20.4" height="20.04" stroke-width="0" fill="#121633"/></g></g><g clip-path="url(#clippath-127)"><g clip-path="url(#clippath-128)"><rect x="152.88" y="249.77" width="20.4" height="20.04" stroke-width="0" fill="#121633"/></g></g><g clip-path="url(#clippath-129)"><g clip-path="url(#clippath-130)"><rect x="94.58" y="228.23" width="20.4" height="20.04" stroke-width="0" fill="#121633"/></g></g><g clip-path="url(#clippath-131)"><g clip-path="url(#clippath-132)"><rect x="109.15" y="236.64" width="20.4" height="20.04" stroke-width="0" fill="#121633"/></g></g><g clip-path="url(#clippath-133)"><g clip-path="url(#clippath-134)"><rect x="123.73" y="245.06" width="20.4" height="20.04" stroke-width="0" fill="#121633"/></g></g><g clip-path="url(#clippath-135)"><g clip-path="url(#clippath-136)"><rect x="138.31" y="253.48" width="20.4" height="20.04" stroke-width="0" fill="#121633"/></g></g><g clip-path="url(#clippath-137)"><g clip-path="url(#clippath-138)"><rect x="152.88" y="261.89" width="20.4" height="20.04" stroke-width="0" fill="#121633"/></g></g><g clip-path="url(#clippath-139)"><g clip-path="url(#clippath-140)"><rect x="94.58" y="289.28" width="20.4" height="20.04" stroke-width="0" fill="#121633"/></g></g><g clip-path="url(#clippath-141)"><g clip-path="url(#clippath-142)"><rect x="109.15" y="297.7" width="20.4" height="20.04" stroke-width="0" fill="#121633"/></g></g><g clip-path="url(#clippath-143)"><g clip-path="url(#clippath-144)"><rect x="123.73" y="306.12" width="20.4" height="20.04" stroke-width="0" fill="#121633"/></g></g><g clip-path="url(#clippath-145)"><g clip-path="url(#clippath-146)"><rect x="138.31" y="314.53" width="20.4" height="20.04" stroke-width="0" fill="#121633"/></g></g><g clip-path="url(#clippath-147)"><g clip-path="url(#clippath-148)"><rect x="152.88" y="322.95" width="20.4" height="20.04" stroke-width="0" fill="#121633"/></g></g><g clip-path="url(#clippath-149)"><g clip-path="url(#clippath-150)"><rect x="364.69" y="21.41" width="138.09" height="187.49" stroke-width="0" fill="#FF8F00"/></g></g><g clip-path="url(#clippath-151)"><g clip-path="url(#clippath-152)"><rect x="364.69" y="27.73" width="127.12" height="181.18" stroke-width="0" fill="#FAA800"/></g></g><g clip-path="url(#clippath-153)"><g clip-path="url(#clippath-154)"><rect x="392.11" y="70.03" width="72.29" height="96.57" stroke-width="0" fill="#FFFFFF"/></g></g><g clip-path="url(#clippath-155)"><g clip-path="url(#clippath-156)"><rect x="411.31" y="95.96" width="33.88" height="44.71" stroke-width="0" fill="#FAA800"/></g></g><g clip-path="url(#clippath-157)"><g clip-path="url(#clippath-158)"><rect x="283.53" y="315.37" width="133.58" height="178.54" stroke-width="0" fill="#2B6EFF"/></g></g><g clip-path="url(#clippath-159)"><g clip-path="url(#clippath-160)"><rect x="280.83" y="319.9" width="128.42" height="174.58" stroke-width="0" fill="#3EB4FF"/></g></g><g clip-path="url(#clippath-161)"><g clip-path="url(#clippath-162)"><rect x="307.86" y="355.43" width="74.35" height="103.52" stroke-width="0" fill="#2B6EFF"/></g></g><g clip-path="url(#clippath-163)"><g clip-path="url(#clippath-164)"><rect x="311.72" y="382.44" width="28.72" height="38.63" stroke-width="0" fill="#00FFC3"/></g></g><g clip-path="url(#clippath-165)"><g clip-path="url(#clippath-166)"><rect x="333.08" y="382.23" width="24" height="44.07" stroke-width="0" fill="#00FFC3"/></g></g><g clip-path="url(#clippath-167)"><g clip-path="url(#clippath-168)"><rect x="349.63" y="393.52" width="28.72" height="38.63" stroke-width="0" fill="#00FFC3"/></g></g><g clip-path="url(#clippath-169)"><g clip-path="url(#clippath-170)"><g><g clip-path="url(#clippath-171)"><g clip-path="url(#clippath-172)"><g clip-path="url(#clippath-173)"><rect x="35" y="420.13" width="109.9" height="67.33" stroke-width="0" fill="#FFC551"/></g></g></g></g></g></g><g clip-path="url(#clippath-174)"><g clip-path="url(#clippath-175)"><g><g clip-path="url(#clippath-176)"><g clip-path="url(#clippath-177)"><g clip-path="url(#clippath-178)"><rect x="35" y="410.29" width="109.9" height="76.26" stroke-width="0" fill="#FFC551"/></g></g></g></g></g></g><g clip-path="url(#clippath-179)"><g clip-path="url(#clippath-180)"><g><g clip-path="url(#clippath-181)"><g clip-path="url(#clippath-182)"><g clip-path="url(#clippath-183)"><rect x="35" y="409.37" width="109.9" height="67.33" stroke-width="0" fill="#FCD683"/></g></g></g></g></g></g><g clip-path="url(#clippath-184)"><g clip-path="url(#clippath-185)"><rect x="51.8" y="419.99" width="79.45" height="49.85" stroke-width="0" fill="#0F1128"/></g></g><g clip-path="url(#clippath-186)"><g clip-path="url(#clippath-187)"><rect x="51.8" y="413.14" width="79.45" height="56.06" stroke-width="0" fill="#0F1128"/></g></g><g clip-path="url(#clippath-188)"><g clip-path="url(#clippath-189)"><rect x="51.8" y="412.51" width="79.45" height="49.85" stroke-width="0" fill="#181D3B"/></g></g><g clip-path="url(#clippath-190)"><g clip-path="url(#clippath-191)"><rect x="62.37" y="412.88" width="71.26" height="45.16" stroke-width="0" fill="#3B3F6C"/></g></g><g clip-path="url(#clippath-192)"><g clip-path="url(#clippath-193)"><rect x="62.37" y="406.84" width="71.26" height="50.63" stroke-width="0" fill="#3B3F6C"/></g></g><g clip-path="url(#clippath-194)"><g clip-path="url(#clippath-195)"><rect x="62.37" y="406.28" width="71.26" height="45.16" stroke-width="0" fill="#4C4E87"/></g></g><g clip-path="url(#clippath-196)"><g clip-path="url(#clippath-197)"><rect x="113.77" y="487.77" width="20.86" height="21.18" stroke-width="0" fill="#EFB7B9"/></g></g><g clip-path="url(#clippath-198)"><g clip-path="url(#clippath-199)"><rect x="114.84" y="494.6" width="34.28" height="32.4" stroke-width="0" fill="#34333F"/></g></g><g clip-path="url(#clippath-200)"><g clip-path="url(#clippath-201)"><rect x="114.51" y="501.51" width="34.67" height="26.64" stroke-width="0" fill="#FFFFFF"/></g></g><g clip-path="url(#clippath-202)"><g clip-path="url(#clippath-203)"><rect x="143.17" y="454.41" width="21.59" height="22.31" stroke-width="0" fill="#EFB7B9"/></g></g><g clip-path="url(#clippath-204)"><g clip-path="url(#clippath-205)"><rect x="144.62" y="463.85" width="39.67" height="24.7" stroke-width="0" fill="#34333F"/></g></g><g clip-path="url(#clippath-206)"><g clip-path="url(#clippath-207)"><g><g clip-path="url(#clippath-208)"><g clip-path="url(#clippath-209)"><g clip-path="url(#clippath-210)"><rect x="144.55" y="471.38" width="39.78" height="18.3" stroke-width="0" fill="#FFFFFF"/></g></g></g></g></g></g><g clip-path="url(#clippath-211)"><g clip-path="url(#clippath-212)"><rect x="85.01" y="409.98" width="59.96" height="41.55" stroke-width="0" fill="#353643"/></g></g><g clip-path="url(#clippath-213)"><g clip-path="url(#clippath-214)"><rect x="69.29" y="400.1" width="92.62" height="100.86" stroke-width="0" fill="#474463"/></g></g><g clip-path="url(#clippath-215)"><g clip-path="url(#clippath-216)"><rect x="96.03" y="348.83" width="25.97" height="42.37" stroke-width="0" fill="#67647E"/></g></g><g clip-path="url(#clippath-217)"><g clip-path="url(#clippath-218)"><rect x="100.72" y="376.95" width="70.25" height="47" stroke-width="0" fill="#EFB7B9"/></g></g><g clip-path="url(#clippath-219)"><g clip-path="url(#clippath-220)"><rect x="66.54" y="347.99" width="49.15" height="73.38" stroke-width="0" fill="#E1E7EF"/></g></g><g clip-path="url(#clippath-221)"><g clip-path="url(#clippath-222)"><g><g clip-path="url(#clippath-223)"><g clip-path="url(#clippath-224)"><g clip-path="url(#clippath-225)"><rect x="76.45" y="318.52" width="36.68" height="33.72" stroke-width="0" fill="#67647E"/></g></g></g></g></g></g><g clip-path="url(#clippath-226)"><g clip-path="url(#clippath-227)"><rect x="83.02" y="342.76" width="22.14" height="23.24" stroke-width="0" fill="#EBA8AA"/></g></g><g clip-path="url(#clippath-228)"><g clip-path="url(#clippath-229)"><rect x="79.88" y="326.07" width="32.41" height="34.01" stroke-width="0" fill="#EFB7B9"/></g></g><g clip-path="url(#clippath-230)"><g clip-path="url(#clippath-231)"><rect x="94.02" y="413.94" width="64.02" height="41.19" stroke-width="0" fill="#9FC0F0"/></g></g><g clip-path="url(#clippath-232)"><g clip-path="url(#clippath-233)"><rect x="94.02" y="412.76" width="64.02" height="41.19" stroke-width="0" fill="#C6E2FB"/></g></g><g clip-path="url(#clippath-234)"><g clip-path="url(#clippath-235)"><rect x="106.88" y="424.8" width="39.62" height="27.1" stroke-width="0" fill="#2E3B70"/></g></g><g clip-path="url(#clippath-236)"><g clip-path="url(#clippath-237)"><rect x="106" y="418.38" width="27.65" height="20.19" stroke-width="0" fill="#A7CBF0"/></g></g><g clip-path="url(#clippath-238)"><g clip-path="url(#clippath-239)"><rect x="63" y="364.32" width="24.82" height="43.51" stroke-width="0" fill="#67647E"/></g></g><g clip-path="url(#clippath-240)"><g clip-path="url(#clippath-241)"><rect x="65.96" y="394.06" width="69.32" height="51.35" stroke-width="0" fill="#EFB7B9"/></g></g><g clip-path="url(#clippath-242)"><g clip-path="url(#clippath-243)"><rect x="115.91" y="398.01" width="43.24" height="55.93" stroke-width="0" fill="#C6E2FB"/></g></g><g clip-path="url(#clippath-244)"><g clip-path="url(#clippath-245)"><rect x="116.4" y="398.27" width="43.24" height="55.67" stroke-width="0" fill="#B0B5D1"/></g></g><g clip-path="url(#clippath-246)"><g clip-path="url(#clippath-247)"><rect x="131.74" y="416.97" width="15.85" height="15.55" stroke-width="0" fill="#FFFFFF"/></g></g></g></svg>