<svg viewBox="0 0 96 96" xmlns="http://www.w3.org/2000/svg" xmlns:xlink="http://www.w3.org/1999/xlink" id="Icons_InternetOfThings_M" overflow="hidden"><style>
.MsftOfcResponsive_Stroke_b11f28 {
 stroke:#B11F28; 
}
</style>
<g id="Icons"><path d="M15 27C16.8184 26.9932 18.4034 25.7607 18.858 24L24 24C25.6569 24 27 25.3431 27 27L27 38.442C27.444 38.306 27.894 38.188 28.352 38.095 28.5359 37.5202 28.7522 36.9563 29 36.406L29 27C28.9967 24.2399 26.7601 22.0033 24 22L18.857 22C18.3008 19.866 16.1201 18.5869 13.9861 19.1431 11.8521 19.6992 10.573 21.88 11.1291 24.014 11.5881 25.7752 13.18 27.0032 15 27Z" class="MsftOfcResponsive_Stroke_b11f28" stroke="#B11F28" stroke-width="1.72973" stroke-linecap="butt" stroke-linejoin="miter" stroke-miterlimit="4" stroke-opacity="1" fill="#B11F28" fill-opacity="1"/><path d="M18.369 58 11 58C9.34315 58 8 56.6569 8 55L8 48.858C10.139 48.3057 11.4253 46.124 10.873 43.985 10.3207 41.846 8.13899 40.5598 6 41.112 3.86101 41.6643 2.57473 43.846 3.12702 45.985 3.49081 47.394 4.59105 48.4942 6 48.858L6 55C6.00331 57.7601 8.23995 59.9967 11 60L19.561 60C19.109 59.3675 18.7103 58.6985 18.369 58Z" class="MsftOfcResponsive_Stroke_b11f28" stroke="#B11F28" stroke-width="1.72973" stroke-linecap="butt" stroke-linejoin="miter" stroke-miterlimit="4" stroke-opacity="1" fill="#B11F28" fill-opacity="1"/><path d="M45 14.858 45 27.071C45.6718 27.1208 46.3397 27.2126 47 27.346L47 14.858C49.139 14.3057 50.4253 12.124 49.873 9.98502 49.3207 7.84603 47.139 6.55975 45 7.11203 42.861 7.66432 41.5747 9.84603 42.127 11.985 42.4908 13.394 43.591 14.4942 45 14.858Z" class="MsftOfcResponsive_Stroke_b11f28" stroke="#B11F28" stroke-width="1.72973" stroke-linecap="butt" stroke-linejoin="miter" stroke-miterlimit="4" stroke-opacity="1" fill="#B11F28" fill-opacity="1"/><path d="M64 33C64 31.3431 65.3431 30 67 30L73 30C75.7601 29.9967 77.9967 27.7601 78 25L78 22.858C80.139 22.3057 81.4253 20.124 80.873 17.985 80.3207 15.846 78.139 14.5597 76 15.112 73.861 15.6643 72.5747 17.846 73.127 19.985 73.4908 21.394 74.591 22.4942 76 22.858L76 25C76 26.6569 74.6569 28 73 28L67 28C64.2399 28.0033 62.0033 30.2399 62 33L62 33.478C62.6924 33.7659 63.3611 34.1076 64 34.5Z" class="MsftOfcResponsive_Stroke_b11f28" stroke="#B11F28" stroke-width="1.72973" stroke-linecap="butt" stroke-linejoin="miter" stroke-miterlimit="4" stroke-opacity="1" fill="#B11F28" fill-opacity="1"/><path d="M52 80.142 52 66 50 66 50 80.142C47.861 80.6943 46.5747 82.876 47.127 85.015 47.6793 87.154 49.861 88.4403 52 87.888 54.139 87.3357 55.4253 85.154 54.873 83.015 54.5092 81.606 53.409 80.5058 52 80.142Z" class="MsftOfcResponsive_Stroke_b11f28" stroke="#B11F28" stroke-width="1.72973" stroke-linecap="butt" stroke-linejoin="miter" stroke-miterlimit="4" stroke-opacity="1" fill="#B11F28" fill-opacity="1"/><path d="M35 67C35 68.6569 33.6569 70 32 70L26 70C23.2399 70.0033 21.0033 72.2399 21 75L21 77.142C18.861 77.6943 17.5747 79.876 18.127 82.015 18.6793 84.154 20.861 85.4403 23 84.888 25.139 84.3357 26.4253 82.154 25.873 80.015 25.5092 78.606 24.409 77.5058 23 77.142L23 75C23 73.3431 24.3431 72 26 72L32 72C34.7601 71.9967 36.9967 69.7601 37 67L37 66 35 66Z" class="MsftOfcResponsive_Stroke_b11f28" stroke="#B11F28" stroke-width="1.72973" stroke-linecap="butt" stroke-linejoin="miter" stroke-miterlimit="4" stroke-opacity="1" fill="#B11F28" fill-opacity="1"/><path d="M89 44C87.1816 44.0068 85.5966 45.2393 85.142 47L76.65 47C77.0719 47.6319 77.4344 48.3014 77.733 49L85.141 49C85.6972 51.134 87.8779 52.4131 90.0119 51.8569 92.1459 51.3008 93.425 49.12 92.8689 46.986 92.4101 45.2255 90.8193 43.9978 89 44Z" class="MsftOfcResponsive_Stroke_b11f28" stroke="#B11F28" stroke-width="1.72973" stroke-linecap="butt" stroke-linejoin="miter" stroke-miterlimit="4" stroke-opacity="1" fill="#B11F28" fill-opacity="1"/><path d="M80 71C78.1816 71.0068 76.5966 72.2393 76.142 74L71 74C69.3431 74 68 72.6569 68 71L68 65.876C67.4501 65.9543 66.8955 65.9958 66.34 66L66 66 66 71C66.0033 73.7601 68.2399 75.9967 71 76L76.142 76C76.6982 78.134 78.8789 79.4131 81.0129 78.8569 83.1469 78.3008 84.426 76.12 83.8699 73.986 83.411 72.2252 81.8196 70.9973 80 71Z" class="MsftOfcResponsive_Stroke_b11f28" stroke="#B11F28" stroke-width="1.72973" stroke-linecap="butt" stroke-linejoin="miter" stroke-miterlimit="4" stroke-opacity="1" fill="#B11F28" fill-opacity="1"/><path d="M22.208 45.241C19.7028 48.5213 19.254 52.9313 21.047 56.649 22.8424 60.3765 26.5498 62.8075 30.684 62.968L30.748 62.968 33.689 62.998 66.339 62.998C71.4534 63.0516 75.6429 58.9489 75.6964 53.8345 75.7459 49.1146 72.2377 45.1128 67.552 44.544 67.0337 41.6551 65.39 39.09 62.982 37.412 61.0897 36.0885 58.8352 35.381 56.526 35.386 55.8103 35.3853 55.0961 35.4522 54.393 35.586 51.9479 32.0714 47.9315 29.983 43.65 30 42.6287 30.0004 41.6109 30.1192 40.617 30.354 35.5214 31.5301 31.637 35.6616 30.777 40.82 27.4037 40.9399 24.2607 42.5615 22.208 45.241ZM31.162 42.813C31.6425 42.8131 32.1223 42.8506 32.597 42.925 32.6018 42.9261 32.6067 42.9231 32.6078 42.9182 32.6079 42.9175 32.608 42.9167 32.608 42.916 32.608 42.862 32.608 42.673 32.608 42.602 32.7673 37.6463 36.242 33.4184 41.073 32.302 45.993 31.1329 51.0817 33.4349 53.452 37.902 53.4556 37.9047 53.4604 37.9047 53.464 37.902 56.277 36.9241 59.3881 37.3516 61.833 39.052 64.2166 40.7049 65.6635 43.4001 65.724 46.3 65.724 46.333 65.724 46.452 65.724 46.488 65.724 46.494 65.724 46.497 65.735 46.496 65.9341 46.4727 66.1346 46.4633 66.335 46.468 70.3476 46.4209 73.6387 49.6356 73.6857 53.6483 73.7328 57.6609 70.5181 60.9519 66.5055 60.999 66.4487 60.9997 66.3918 60.9997 66.335 60.999L33.709 60.999 30.769 60.969C27.3743 60.8351 24.3296 58.8412 22.85 55.783 21.3885 52.7405 21.7555 49.1356 23.8 46.45 25.5509 44.154 28.2745 42.8084 31.162 42.813Z" class="MsftOfcResponsive_Stroke_b11f28" stroke="#B11F28" stroke-width="1.72973" stroke-linecap="butt" stroke-linejoin="miter" stroke-miterlimit="4" stroke-opacity="1" fill="#B11F28" fill-opacity="1"/></g></svg>