<svg width="940.484" height="200" viewBox="0 0 705.363 150" xmlns="http://www.w3.org/2000/svg" xmlns:xlink="http://www.w3.org/1999/xlink" overflow="hidden"><symbol id="a" overflow="hidden"><path d=""/></symbol><path d="M149.998 97.14 149.998 77.64 0 77.64 0 97.117C50.588 89.142 99.467 89.149 149.998 97.139" fill="#02569D"/><path d="M149.998 123.21 149.998 102.467C99.46 94.473 50.595 94.469 0 102.444L0 123.089C52.357 105.211 97.778 105.252 149.998 123.209" fill="#02569D"/><path d="M149.998 128.728C97.698 109.772 52.436 109.73 0 128.603L0 149.963C53.04 120 96.988 120.011 149.998 150Z" fill="#02569D"/><path d="M149.998 52.86 149.998 72.36 0 72.36 0 52.881C50.588 60.857 99.467 60.849 149.998 52.859" fill="#0096DA"/><path d="M149.998 26.79 149.998 47.533C99.46 55.527 50.595 55.53 0 47.555L0 26.91C52.357 44.789 97.778 44.747 149.998 26.79" fill="#0096DA"/><path d="M149.998 21.272C97.698 40.228 52.436 40.27 0 21.397L0 0.037C53.04 30 96.988 29.989 149.998 0Z" fill="#0096DA"/><path d="M303.472 137.962 319.321 137.962 319.321 10.222 303.472 10.222ZM278.802 39.207 265.2 39.207C265.276 38.55 265.313 37.903 265.313 37.284L265.313 22.66C265.313 21.424 265.041 20.577 264.513 20.135 263.975 19.689 263.178 19.477 262.059 19.477L214.926 19.477 214.926 32.234 249.466 32.234 249.466 35.991C249.466 42.84 248.77 49.375 247.406 55.407 246.036 61.444 243.773 67.287 240.685 72.775 237.585 78.286 233.537 83.699 228.654 88.862 223.755 94.04 217.685 99.229 210.602 104.283L210.432 104.403 219.912 115.04 220.021 115.157 220.157 115.07C233.008 106.642 243.123 97.083 250.21 86.658 257.278 76.268 261.897 64.6 263.945 51.964L278.803 51.964 278.803 75.266 259.198 75.266 259.198 88.023 278.803 88.023 278.803 137.96 294.251 137.96 294.251 10.22 278.803 10.22ZM361.939 30.302C365.004 26.708 369.487 24.886 375.27 24.886 381.045 24.886 385.532 26.731 388.59 30.37 391.659 34.018 393.209 38.84 393.209 44.7 393.209 50.562 391.659 55.385 388.589 59.032 385.532 62.672 381.053 64.516 375.27 64.516 369.487 64.516 365.004 62.672 361.946 59.032 358.877 55.388 357.324 50.566 357.324 44.699 357.324 38.743 358.877 33.897 361.939 30.302M375.27 77.273C380.346 77.273 385.01 76.468 389.138 74.88 393.269 73.297 396.856 71.04 399.797 68.175 402.745 65.306 405.047 61.852 406.645 57.902 408.252 53.952 409.061 49.511 409.061 44.699 409.061 39.892 408.251 35.447 406.645 31.501 405.047 27.547 402.745 24.092 399.797 21.231 396.856 18.366 393.269 16.11 389.137 14.522 385.003 12.931 380.335 12.13 375.27 12.13 370.201 12.13 365.533 12.93 361.398 14.522 357.263 16.11 353.676 18.366 350.736 21.232 347.791 24.092 345.49 27.547 343.891 31.501 342.284 35.447 341.471 39.891 341.471 44.699 341.471 49.511 342.284 53.952 343.891 57.902 345.49 61.852 347.791 65.306 350.736 68.175 353.676 71.04 357.263 73.297 361.398 74.88 365.526 76.468 370.194 77.273 375.27 77.273M420.376 123.322C416.241 125.836 409.811 127.109 401.269 127.109 392.723 127.109 386.294 125.836 382.166 123.322 378.069 120.835 375.99 117.135 375.99 112.327 375.99 107.523 378.07 103.823 382.166 101.332 386.294 98.822 392.723 97.548 401.269 97.548 409.811 97.548 416.241 98.822 420.376 101.328 424.473 103.818 426.548 107.523 426.548 112.327 426.548 117.135 424.473 120.835 420.376 123.322M430.706 91.35C427.051 89.078 422.659 87.4 417.643 86.36 412.623 85.317 407.116 84.788 401.269 84.788 395.419 84.788 389.911 85.318 384.899 86.36 379.876 87.4 375.484 89.078 371.836 91.35 368.181 93.617 365.29 96.524 363.238 99.986 361.181 103.448 360.142 107.602 360.142 112.327 360.142 117.15 361.182 121.323 363.238 124.74 365.29 128.156 368.189 131.04 371.836 133.308 375.48 135.572 379.872 137.254 384.899 138.298 389.919 139.341 395.422 139.866 401.269 139.866 407.113 139.866 412.619 139.341 417.643 138.297 422.663 137.254 427.058 135.572 430.706 133.308 434.364 131.029 437.256 128.148 439.301 124.74 441.353 121.327 442.401 117.15 442.401 112.327 442.401 107.599 441.353 103.445 439.301 99.987 437.256 96.535 434.364 93.629 430.706 91.35M440.93 10.223 425.08 10.223 425.08 83.262 440.93 83.262 440.93 65.301 460.663 65.301 460.663 52.54 440.929 52.54 440.929 38.494 460.663 38.494 460.663 25.734 440.929 25.734ZM505.69 66.054C508.003 63.518 509.886 60.948 511.288 58.415 512.77 60.857 514.648 63.268 516.882 65.585 519.18 67.978 521.796 70.227 524.638 72.272 527.527 74.3389 530.567 76.1861 533.732 77.798 536.93 79.427 540.214 80.761 543.499 81.755L543.646 81.8 549.72 70.783 549.826 70.586 549.614 70.51C545.569 69.0747 541.653 67.2997 537.908 65.204 534.204 63.124 530.893 60.694 528.078 57.996 525.258 55.289 522.982 52.228 521.315 48.902 519.649 45.579 518.805 41.981 518.805 38.202L518.805 28.563 544.545 28.563 544.545 15.803 476.155 15.803 476.155 28.563 502.689 28.563 502.689 38.061C502.689 42.015 501.71 45.817 499.779 49.367 497.836 52.935 495.289 56.344 492.212 59.492 489.132 62.645 485.529 65.574 481.507 68.201 477.486 70.821 473.389 73.16 469.325 75.148L469.125 75.246 477.127 86.045 477.221 86.166 477.354 86.102C480.983 84.5262 484.489 82.6804 487.842 80.58 491.212 78.4877 494.449 76.1876 497.533 73.693 500.565 71.24 503.309 68.67 505.69 66.054" fill="#02569D"/><path d="M540.43 40.567 540.43 53.327 561.766 53.327 561.766 98.907 577.611 98.907 577.611 10.223 561.766 10.223 561.766 40.567ZM510.409 92.683 494.557 92.683 494.557 130.291C494.557 134.388 496.685 136.463 500.88 136.463L580.413 136.463 580.413 123.707 510.409 123.707ZM664.766 18.795 607.632 18.795 607.632 31.555 652.172 31.555 652.172 38.17C652.172 45.004 651.28 51.577 649.515 57.711 647.742 63.842 644.953 69.686 641.211 75.071 637.45 80.481 632.547 85.617 626.644 90.341 620.714 95.081 613.501 99.583 605.205 103.722L605.008 103.82 612.738 114.751 612.832 114.884 612.972 114.816C631.41 106.126 645.346 95.259 654.387 82.503 663.432 69.735 668.02 54.775 668.02 38.034L668.02 21.978C668.02 20.723 667.756 19.895 667.219 19.449 666.697 19.015 665.873 18.795 664.766 18.795M689.246 137.962 705.363 137.962 705.363 10.222 689.246 10.222Z" fill="#02569D"/><use width="100%" height="100%" xlink:href="#a" fill="#5B5C5E" transform="matrix(5.412 0 0 -6.3631 11622183000 -13664654000)"></use><use width="100%" height="100%" xlink:href="#a" fill="#5B5C5E" transform="matrix(5.412 0 0 -6.3631 11622183000 -13664654000)"></use></svg>