<svg viewBox="0 0 96 96" xmlns="http://www.w3.org/2000/svg" xmlns:xlink="http://www.w3.org/1999/xlink" id="Icons_SyncingCloud_M" overflow="hidden"><g id="Icons"><path d="M58.9 51.6C58.9 51.6 58.9 51.6 58.9 51.6 58.9 51.6 58.9 51.6 58.9 51.6 58.1 44.5 51.7 39.3 44.6 40 39.9 40.5 35.9 43.4 34 47.7L35.8 48.5C38.2 42.9 44.7 40.4 50.3 42.8 53.8 44.3 56.2 47.5 56.8 51.3 56.8 51.3 56.8 51.3 56.8 51.3 56.8 51.3 56.8 51.3 56.8 51.3L54.6 49.1 53.2 50.5 57.9 55.2 62.6 50.5 61.2 49.1 58.9 51.6Z" stroke="#BFBFBF" stroke-width="0.999917" stroke-linecap="butt" stroke-linejoin="miter" stroke-miterlimit="4" stroke-opacity="1" fill="#BFBFBF" fill-opacity="1"/><path d="M46 64C40.5 64 35.9 60 35.1 54.6 35.1 54.6 35.1 54.6 35.1 54.6 35.1 54.6 35.1 54.6 35.1 54.6L37.3 56.8 38.7 55.4 34 50.6 29.3 55.3 30.7 56.7 33 54.4C33 54.4 33 54.4 33 54.4 33 54.4 33 54.4 33 54.4 33.8 61.5 40.1 66.7 47.3 66 52 65.5 56 62.6 57.9 58.3L56.1 57.5C54.3 61.4 50.4 64 46 64Z" stroke="#BFBFBF" stroke-width="0.999917" stroke-linecap="butt" stroke-linejoin="miter" stroke-miterlimit="4" stroke-opacity="1" fill="#BFBFBF" fill-opacity="1"/><path d="M80.6 44.9C79.8 40 77.1 35.6 73.1 32.7 68.9 29.8 63.8 28.7 58.8 29.7 54.8 23.7 48.2 20 41 20 39.4 20 37.7 20.2 36.1 20.6 27.6 22.8 21.2 29.9 19.9 38.6 14.2 38.8 9 41.5 5.6 46 1.6 51.6 0.9 58.9 3.7 65.2 6.6 71.4 12.6 75.5 19.4 75.9L26.7 75.9 68.2 76 78.8 76C87.4 75.8 94.2 68.6 94 60 93.8 52.3 88.1 46 80.6 44.9 80.6 44.9 80.6 44.9 80.6 44.9ZM92 61.2C91.5 68.2 85.8 73.8 78.8 74L68.2 74 26.7 73.9 19.5 73.9C13.5 73.5 8.1 69.9 5.6 64.4 3 58.8 3.6 52.2 7.2 47.2 10.3 43.2 14.9 40.8 20 40.6L21.7 40.5 21.9 38.9C23.1 31 28.9 24.6 36.6 22.5 38 22.2 39.5 22 41 22 47.5 22 53.6 25.3 57.1 30.8L57.8 31.9 59.1 31.6C63.5 30.7 68.1 31.7 71.8 34.3 75.4 36.9 77.8 40.8 78.5 45.2L78.7 46.6 80.1 46.8C87.3 47.9 92.3 54.1 92 61.2L92 61.2Z" stroke="#BFBFBF" stroke-width="0.999917" stroke-linecap="butt" stroke-linejoin="miter" stroke-miterlimit="4" stroke-opacity="1" fill="#BFBFBF" fill-opacity="1"/></g></svg>