<svg viewBox="0 0 96 96" xmlns="http://www.w3.org/2000/svg" xmlns:xlink="http://www.w3.org/1999/xlink" id="Icons_Computer_M" overflow="hidden"><g id="Icons"><path d="M9 25.006 7 25.006 7 59.018 55 59.018 55 25.006 9 25.006ZM53 57.018 9 57.018 9 27.006 53 27.006Z" stroke="#BFBFBF" stroke-width="0.999917" stroke-linecap="butt" stroke-linejoin="miter" stroke-miterlimit="4" fill="#BFBFBF" fill-opacity="1"/><path d="M56 20 6 20C3.7936 20.0066 2.00659 21.7936 2 24L2 60.019C2.00714 62.2252 3.79382 64.0119 6 64.019L26 64.019 26 72.019 16 72.019 16 74.019 46 74.019 46 72.019 36 72.019 36 64.019 56 64.019C58.2062 64.0119 59.9929 62.2252 60 60.019L60 24.005C59.9962 21.7966 58.2084 20.0066 56 20ZM34 72.023 28 72.023 28 64.023 34 64.023ZM58 60.023C58 61.1276 57.1046 62.023 56 62.023L6 62.023C4.89543 62.023 4 61.1276 4 60.023L4 24.005C4 22.9004 4.89543 22.005 6 22.005L56 22.005C57.1046 22.005 58 22.9004 58 24.005Z" stroke="#BFBFBF" stroke-width="0.999917" stroke-linecap="butt" stroke-linejoin="miter" stroke-miterlimit="4" fill="#BFBFBF" fill-opacity="1"/><path d="M90 20 70 20C67.7909 20 66 21.7909 66 24L66 70C66 72.2091 67.7909 74 70 74L90 74C92.2091 74 94 72.2091 94 70L94 24C94 21.7909 92.2091 20 90 20ZM92 70C92 71.1046 91.1046 72 90 72L70 72C68.8954 72 68 71.1046 68 70L68 24C68 22.8954 68.8954 22 70 22L90 22C91.1046 22 92 22.8954 92 24Z" stroke="#BFBFBF" stroke-width="0.999917" stroke-linecap="butt" stroke-linejoin="miter" stroke-miterlimit="4" fill="#BFBFBF" fill-opacity="1"/><rect x="72" y="28" width="16" height="2" stroke="#BFBFBF" stroke-width="0.999917" stroke-linecap="butt" stroke-linejoin="miter" stroke-miterlimit="4" fill="#BFBFBF" fill-opacity="1"/><rect x="72" y="34" width="16" height="2" stroke="#BFBFBF" stroke-width="0.999917" stroke-linecap="butt" stroke-linejoin="miter" stroke-miterlimit="4" fill="#BFBFBF" fill-opacity="1"/><circle cx="80" cy="64.5" r="1.5" stroke="#BFBFBF" stroke-width="0.999917" stroke-linecap="butt" stroke-linejoin="miter" stroke-miterlimit="4" fill="#BFBFBF" fill-opacity="1"/></g></svg>