<svg xmlns="http://www.w3.org/2000/svg" width="335" height="277" viewBox="0 0 335 277">
  <g fill="none" fill-rule="evenodd">
    <g transform="translate(0 199.206)">
      <path fill="#D5D2CF" d="M126.377188,77.7472811 C120.623231,77.7472811 116.945841,77.3335819 116.627502,76.4884158 L116.627502,75.3868986 L218.371536,75.3868986 L218.371536,76.4884158 C218.053198,77.3335819 214.375808,77.7472811 208.621851,77.7472811 L126.377028,77.7472811 L126.377188,77.7472811 Z"/>
      <path fill="#C3C3C3" d="M116.627983,75.3874588 C117.482626,73.6527073 128.384224,68.0045004 129.803288,65.4508342 C131.908373,62.6935597 133.335447,43.6684377 134.267792,31.1692629 L134.267792,30.0542199 L200.732368,30.0542199 L200.732368,31.1692629 C201.664713,43.6684377 203.091787,62.6935597 205.196872,65.4508342 C206.615936,68.0045004 217.517535,73.6527073 218.372177,75.3874588 C218.291111,76.5446802 213.446187,76.8036723 208.764758,76.8036723 L126.235562,76.8036723 C121.553973,76.8036723 116.709049,76.5446802 116.627983,75.3874588 Z"/>
      <path fill="#D5D2CF" d="M335,0.0112048541 L0,0.0112048541 L0,23.2451101 C0,27.6181245 3.55346724,31.1685426 7.93041607,31.1685426 L327.069584,31.1685426 C331.446533,31.1685426 335,27.6181245 335,23.2451101 L335,0.0112048541 L335,0.0112048541 Z"/>
    </g>
    <g fill="#343434">
      <path d="M335,7.92343253 C335,3.55033805 331.446533,0 327.069584,0 L7.93041607,0 C3.55346724,0 0,3.55033805 0,7.92343253 L0,199.53284 L335,199.53284 L335,7.92343253 L335,7.92343253 Z"/>
      <path d="M328.25,6.64 C328.25,6.507 328.142,6.4 328.01,6.4 L6.99,6.4 C6.857,6.4 6.75,6.507 6.75,6.64 L6.75,192.87 C6.75,193.0 6.857,193.11 6.99,193.11 L328.01,193.11 C328.142,193.11 328.25,193.0 328.25,192.87 L328.25,6.64 L328.25,6.64 Z"/>
      <rect width="321.3" height="186.21" transform="translate(6.85 6.66)"/>
    </g>
    <ellipse cx="167.5" cy="3.375" fill="#3E3E3E" rx="1.2" ry="1.2"/>
  </g>
</svg>
