<?xml version="1.0" encoding="UTF-8"?>
<svg id="Layer_2" data-name="Layer 2" xmlns="http://www.w3.org/2000/svg" xmlns:xlink="http://www.w3.org/1999/xlink" viewBox="0 0 110.85 95">
  <defs>
    <style>
      .cls-1 {
        fill: none;
      }

      .cls-2 {
        fill: #e81d24;
        filter: url(#drop-shadow-2);
      }

      .cls-3 {
        fill: #b30710;
      }

      .cls-4 {
        fill: #cc1d2a;
        filter: url(#drop-shadow-1);
      }

      .cls-5 {
        clip-path: url(#clippath);
      }
    </style>
    <clipPath id="clippath">
      <path class="cls-1" d="M105.81,33.08l-14.96,4.01v-10.13c0-2.63-2.5-4.55-5.04-3.87l-14.96,4.01v-10.15c0-2.63-2.49-4.54-5.03-3.86L13.82,27c-1.75.47-2.96,2.05-2.96,3.86v48.07c0,2.21,1.79,4,4,4h92c2.21,0,4.01-1.79,4.01-4.01v-41.98c0-2.63-2.5-4.55-5.04-3.87Z"/>
    </clipPath>
    <filter id="drop-shadow-1" x="20" y="10" width="85" height="85" filterUnits="userSpaceOnUse">
      <feOffset dx="2" dy="0"/>
      <feGaussianBlur result="blur" stdDeviation="4"/>
      <feFlood flood-color="#231f20" flood-opacity=".3"/>
      <feComposite in2="blur" operator="in"/>
      <feComposite in="SourceGraphic"/>
    </filter>
    <filter id="drop-shadow-2" x="0" y="0" width="85" height="95" filterUnits="userSpaceOnUse">
      <feOffset dx="2" dy="0"/>
      <feGaussianBlur result="blur-2" stdDeviation="4"/>
      <feFlood flood-color="#231f20" flood-opacity=".3"/>
      <feComposite in2="blur-2" operator="in"/>
      <feComposite in="SourceGraphic"/>
    </filter>
  </defs>
  <g id="Layer_1-2" data-name="Layer 1">
    <g class="cls-5">
      <g>
        <path class="cls-3" d="M106.85,82.93h-51.99c-2.21,0-4.01-1.79-4.01-4.01v-28.06c0-1.81,1.22-3.4,2.97-3.87l51.99-13.92c2.54-.68,5.04,1.24,5.04,3.87v41.98c0,2.21-1.79,4.01-4.01,4.01Z"/>
        <path class="cls-4" d="M86.85,82.93h-51.99c-2.21,0-4.01-1.79-4.01-4.01v-38.06c0-1.81,1.22-3.4,2.97-3.87l51.99-13.92c2.55-.68,5.04,1.24,5.04,3.87v51.98c0,2.21-1.79,4.01-4.01,4.01Z"/>
        <path class="cls-2" d="M66.86,82.93H14.85c-2.21,0-4-1.79-4-4V30.86c0-1.81,1.22-3.39,2.96-3.86l52.01-13.93c2.54-.68,5.03,1.23,5.03,3.86v62c0,2.21-1.79,4-4,4Z"/>
      </g>
    </g>
  </g>
</svg>